<?xml version="1.0" encoding="UTF-8"?>
<svg id="Ebene_9" xmlns="http://www.w3.org/2000/svg" viewBox="0 0 550.09 518.27">
  <defs>
    <style>
      .cls-1 {
        fill: #c18656;
      }

      .cls-2 {
        fill: #f4cb46;
      }

      .cls-3 {
        fill: #e5ba42;
      }

      .cls-4 {
        fill: #1d1d1b;
      }

      .cls-5 {
        fill: #efbeab;
      }

      .cls-6 {
        fill: #853a43;
      }

      .cls-7 {
        fill: #d3808d;
        opacity: .8;
      }

      .cls-8 {
        fill: #fff;
      }

      .cls-9 {
        fill: #dbb045;
      }

      .cls-10 {
        stroke-width: 3px;
      }

      .cls-10, .cls-11 {
        fill: none;
        stroke: #1d1d1b;
        stroke-miterlimit: 10;
      }

      .cls-11 {
        stroke-width: 3.6px;
      }

      .cls-12 {
        fill: #c52861;
      }
    </style>
  </defs>
  <g id="Ebene_7">
    <path class="cls-1" d="M296.62,214.54s-14.31-7.04-27.59,1.9c-16.64,11.2-19.11,22.13-27.36,26.29-12.23,6.16-26.29,6.71-26.29,6.71,0,0,7.01,3.59,17.7,1.61,4.53-.84,11-4.29,11-4.29,0,0-3.43,5.22-18.27,6.37-14.84,1.16-36.74-1.71-36.74-1.71,0,0,3.43,11.72,13.32,16.53,9.89,4.81,23.46,11.7,23.46,11.7,0,0,2.52.9-5.84.33-8.36-.57-16.82-2.45-16.82-2.45,0,0,12.99,12.3,32.34,12.04,12.92-.17,38.28-7.74,43.7-10.9s9.92-10.19,9.92-10.19l11.48-14.13-4-39.8Z"/>
  </g>
  <g id="Ebene_6">
    <path class="cls-4" d="M292.3,213.64c-4.25-1.9-9.18-1.61-13.71-.94-.7.12-2.07.44-2.75.64-5.59,1.68-10.19,5.36-14.22,9.6-6.09,6.07-10.27,13.96-17.37,19.19-10.15,6.31-22.07,10.38-33.43,4.65,11.94,4.56,23.57-.23,33.35-7.29,5.85-5.32,9.89-12.64,15.37-18.49,5.53-6.25,13.02-11.35,21.61-11.95,4.3-.4,8.91-.32,12.9,1.61,0,0-1.74,2.98-1.74,2.98h0Z"/>
    <path class="cls-4" d="M292.38,265.56c-6.29,16.26-27.75,21.39-43.19,24.08-14.5,2.17-30.89,2.82-42.56-7.56-2.14-1.79-3.99-4.11-5.55-6.49,0,0,2.05.46,2.05.46,5.37,1.22,10.82,2.2,16.27,3,6.8.88,13.68,1.77,20.48.82,9.44-2,18.34-6,26.93-10.36-12.83,8.36-28.57,13.65-44.1,11.17-16.51-2.75-29.67-15.58-35.92-30.68,9.23,1.15,18.55,2.19,27.8,2.47,4.28.13,8.55.13,12.59-.67,11.31-2.32,21.77-8.64,29.68-17,6.86-6.45,15.87-14.49,26.01-12.9-4.34.76-8,2.81-11.53,5.08-5.3,3.42-10.15,7.79-14.47,12.42-7.91,7.82-18.12,13.55-29.08,15.63-8.87,1.45-17.59.36-26.36-.6-4.33-.53-8.62-1.16-12.92-1.94l1.21-1.57c1.74,3.19,3.87,6.33,6.23,9.16,16.16,19.79,37.28,21.62,60.29,13.68,3.6-1.18,7.11-2.62,10.56-4.25-4.68,2.98-9.64,5.53-14.76,7.72-3.19,1.34-6.53,2.53-9.85,3.51-7.54,1.82-15.46.91-23.02-.02-5.53-.75-10.98-1.8-16.42-3.09l.86-1.24c7.89,9.54,20.92,12.58,32.88,11.57,15.34-1.02,33.66-4.69,45.94-14.24,2.88-2.47,5.29-5.79,6.7-9.3,0,0,3.25,1.14,3.25,1.14h0Z"/>
    <path class="cls-4" d="M284.14,242.03c-11.3,1.62-20.68,9.14-29.94,15.39-2.85,1.93-5.7,4-8.9,5.37-15.01,6.19-32.87,4.46-46.58-3.98,13.58,6.85,30.22,8.16,44.37,2.38,3.54-1.32,6.51-3.71,9.57-5.92,6.23-4.67,12.51-9.4,19.62-12.79,3.6-1.66,7.45-3.03,11.55-3.4l.31,2.96h0Z"/>
  </g>
  <g id="Ebene_3">
    <path class="cls-12" d="M91.65,451.68s31.34-11.65,49.82-22.9c18.48-11.25,40.87-32.77,40.87-32.77,0,0,10.55,8.66,13.76,18.31,3.21,9.64,2.41,22.9,2.41,22.9,0,0-26.11,16.47-51.02,24.51-24.91,8.03-50.22,13.66-50.22,13.66,0,0-5.62-6.03-5.62-10.85v-12.86Z"/>
    <path class="cls-12" d="M160.35,478.59s28.52,6.42,38.17-.41,17.29-31.23,17.29-31.23c0,0,13.64-3.99,26.9-1.18s15.3,8.71,15.3,8.71c0,0-26.54,48.21-47.43,52.23-20.89,4.02-44.59-1.21-44.59-1.21l-12.86-4.42s-.8-8.03,1.21-12.86c2.01-4.82,6.03-9.64,6.03-9.64Z"/>
    <path class="cls-12" d="M197.41,380.94s17.97,23.33,36.45,32.98c18.48,9.64,37.55,18.57,37.55,18.57,0,0,16.31-33.6,26.37-39.79,11.76-7.23,27.73-28.03,27.73-28.03l7.58-2.57s23.3,6.83,57.05-3.21c33.75-10.04,51.42-27.72,54.24-30.93,2.81-3.21,7.63-9.64,7.63-9.64,0,0-6.03-5.22-7.23-6.03-1.21-.8-8.44-8.84-8.44-8.84,0,0-30.53,25.71-52.23,30.13s-33.75,2.41-37.36,2.01c-3.62-.4-14.46-5.62-14.46-5.62,0,0-5.62,2.41-11.25,2.41s-32.94-19.28-32.94-19.28c0,0-10.45-12.45-17.27-12.45s-11.65,1.21-17.68,1.21-19.28-4.82-26.52-12.45c-7.23-7.63-1.43-41.21-1.43-41.21,0,0-8.81.71-11.62.31s-10.09-3.36-10.09-3.36c0,0-9.18,31.57-2.75,49.25s12.15,18.12,20.19,22.94c8.03,4.82,18.57,7.43,18.57,7.43,0,0,2.84,24.03-15.86,37.82-12.66,9.34-26.22,18.39-26.22,18.39Z"/>
    <path class="cls-5" d="M295.33,309.14l6.52-12.22s-4.48-7.74-6.11-19.15c-1.63-11.41,0-22.4,0-22.4,0,0-5.7,5.3-13.04-2.85-7.33-8.15-5.3-21.59-2.04-28.11,3.26-6.52,15.07-8.15,16.29-6.92s15.29-27.35,15.29-27.35c0,0,73.41-35.68,99.4,10.84,3.58,6.41,1.44,37.14,1.44,37.14l-6.55,27.04s11.2,3.13,5.5,14.53c-5.7,11.41-15.1,13.54-16.72,13.54s-10,10.71-14.07,12.74-10.48,9.5-28.4,11.95c-17.92,2.44-29.4-3.06-29.4-3.06l-6.52,7.74-6.52-1.63-4.48-4.07-3.67-.41-6.92-7.33Z"/>
    <path class="cls-12" d="M285.48,212.16s1.26-3.95,2.48-6.21c1.69-3.14,1.99-7.21,1.99-7.21,0,0,44.92,3.15,63.2,9.87,37.74,13.86,68.37,33.4,62.3,31.35,0,0-.44,15.18-5.62,21.69-8.5,10.68-9.27,13.72-22.28,9.67-17.74-5.52-17.5-22.53-21.92-22.93s-22.9,6.03-35.35,2.01c-12.45-4.02-29.48-35.11-29.48-35.11l-15.32-3.13Z"/>
    <path class="cls-8" d="M342.46,245.89c12.71-.98,16.54-7.5,17.34-12.43,2.18-13.49-12.89-17.71-12.89-17.71l-13.87,1.51s-9.34,9.95-4.17,19.38c2.93,5.35,9.83,9.54,13.58,9.25Z"/>
    <path class="cls-8" d="M391.6,236.06c9.83,1.16,15.32,10.41,14.16,15.32-1.16,4.91-4.62,15.32-14.45,13.87s-14.45-7.8-12.72-16.19c1.96-9.49,9.8-13.38,13.01-13.01Z"/>
    <path class="cls-2" d="M240.86,296.35s14.58-8.22,24.65-8.22,21.73,1.59,26.51,3.18c4.77,1.59,9.83,5.61,9.83,5.61l-6.12,10.29s4.24,3.98,4.51,5.04c.27,1.06,2.02,4.22,2.02,4.22,0,0,4.87.55,6.72,2.67s3.71,3.18,3.71,3.18l4.23.26,6.37-6.09,10.34,3.45s2.92,2.92.27,6.36c-2.65,3.45-3.18,4.51-7.42,4.24s-14.84-1.59-14.84-1.59c0,0,.53.53.53,8.48s.27,13.52.27,13.52c-.53,5.04-.52,9.85-.52,9.85,0,0-11.26-8.97-12.85-15.86-1.59-6.89-1.21-13.08-1.21-13.08,0,0-4.24,5.83-12.99,7.95s-20.67-.27-20.67-.27c0,0,7.16-2.65,9.54-5.04s8.48-8.22,10.07-9.01,4.51-3.45,4.51-3.45c0,0-.27-3.45-.27-5.04s.06-3.95.06-3.95c0,0-10.66-10.63-14.64-11.69-3.98-1.06-12.72-.27-12.72-.27l-19.88-4.77Z"/>
    <path class="cls-2" d="M76.4,348.64l33.79-3.86s5.71,9.26,7.64,17.47c1.93,8.21,2.53,18.2,7.84,23.51s19.59-1.75,26.83-.3,16.1,8.56,16.58,11.45,5.73,5.73,5.73,5.73c0,0,8.25-10.79,13.56-16.58,5.31-5.79,31.27-15.82,37.68-25.32,6.41-9.5,13.44-36.02,13.44-36.02,0,0-8.32-4.2-14.59-4.68s-12.54-5.51-12.54-5.51c0,0-4.64,8.03-27.33,8.52-22.69.48-26.47,1.65-49.15-1.77-16.82-2.54-24.71-5.95-34.37-3.05-9.65,2.9-14,13.03-17.38,16.41-3.38,3.38-7.72,14-7.72,14Z"/>
    <path class="cls-6" d="M316.64,278.68s10.05,15.73,17.79,19.59,20.88,7.73,20.88,7.73c0,0-15.47,5.16-28.62-5.16-13.15-10.31-10.05-22.17-10.05-22.17Z"/>
    <path class="cls-7" d="M319.22,291.05s7.99,1.55,11.86,5.93c3.87,4.38,4.12,9.02,4.12,9.02,0,0-6.45-2.06-10.83-5.93s-5.16-9.02-5.16-9.02Z"/>
    <path class="cls-8" d="M315.35,274.55s10.05,19.59,19.08,23.72,22.69,7.48,22.69,7.48c0,0,6.96-3.35,9.02-4.9s6.19-6.96,6.19-6.96c0,0-23.72-1.55-33.77-7.99-10.05-6.45-22.69-25.01-22.69-25.01l-.52,13.66Z"/>
    <path class="cls-2" d="M198.51,437.21s10.03,7.93,11.16,7.93,8.13,2.52,8.13,2.52c0,0,16.24-4.02,22.24-2.14s18.27,7.76,18.27,7.76l13.12-20.79s-17.85-5.94-37.55-18.57c-19.7-12.63-37.66-32.67-37.66-32.67l-14.17,12.96s12.64,16.08,14.51,22.45c1.87,6.37,1.96,20.56,1.96,20.56Z"/>
    <path class="cls-2" d="M91.22,448.51s-29.99,7.5-34.11,8.25c-4.12.75-9-1.12-11.62,0-2.62,1.12-5.62,13.12-7.12,23.61-1.5,10.5-.75,37.11,1.87,37.11s8.25-2.62,12.37-11.99c4.12-9.37,6.37-25.11,6.37-25.11,0,0,26.24-.75,25.11-1.5s13.12-1.12,13.12-1.12c0,0-4.39-5.82-5.57-13.22-1.18-7.4-.43-16.02-.43-16.02Z"/>
    <path class="cls-3" d="M160.35,478.59l-24.52-12.46-21.37,5.62s-4.5,7.5-9,16.49c-4.5,9-6,20.99-3.37,21.74s9.75-3,13.49-5.62,11.99-14.24,11.99-14.24l25.11,14.24s.25-10.89,1.63-16.13,6.03-9.64,6.03-9.64Z"/>
    <path class="cls-5" d="M201.97,245.27l.08-4.34s-6.02-12.94-4.2-24.2c1.2-7.39,13.35-33.88,17.26-31.89,3.91,1.99,2.27,6.28,2.27,6.28,0,0,7.2-14.59,10.4-12.99s1.61,12.8.77,15.31-2.89,15.87-2.89,15.87c0,0,4.24-13.63,5.84-16.83,1.6-3.2,7.03-10.96,9.92-10.47s2.34,12.83,0,16.37-8.61,21.8-8.61,21.8c0,0,10.83-6.43,15.91-6.2s7.51,2.88,7.79,4.71-8.54,3.98-11.59,7.12c-3.05,3.14-3.59,7.11-5.83,8.47s-8.44,5.17-11.14,8.69-2.75,4.28-2.75,4.28c0,0-9.71-.49-13.65-.34-3.94.15-9.58-1.63-9.58-1.63Z"/>
    <path class="cls-5" d="M438.23,304.69l4.11-3.98s-3.63-8.36-4-14.17,5.09-15.99,7.63-17.44c2.54-1.45,4.72-3.63,6.9-2.54,2.18,1.09,6.18,3.63,6.18,3.63,0,0,6.9-5.09,10.17-2.54,3.27,2.54,4.72,8.72,4.72,8.72,0,0,6.54.36,7.27,2.91s1.09,8.36,1.09,8.36c0,0,4.36,6.18,2.91,9.81s-8.36,9.45-10.54,9.45h-5.09s-4.5,4.85-6.32,4.85-7.04.12-7.04.12l-4.21,6.43s-2.61-2.83-7.23-6.03c-4.62-3.2-6.55-7.58-6.55-7.58Z"/>
    <path class="cls-9" d="M177.82,397.52s-6.01-8.18-12.96-10.55c-13.13-4.47-30.91.22-36.17-2.41s-5.83-9.12-5.83-15.3c0-4.28-2.14-9.09-3.47-15.5-1.81-8.69-7.78-9.64-7.78-9.64,0,0,35.49,1.97,59.15-1.64,23.66-3.61,41.4-10.84,45.67-13.14s14.46-5.59,14.46-5.59l8.61.98s-3.56,23.5-12.24,33.6c-8.68,10.1-29.84,21.4-29.84,21.4l-9.04,8.44-10.55,9.34Z"/>
    <path class="cls-1" d="M306.02,226.66s-5.89,21.09-13.65,27.29c-7.75,6.2-23.26,12.1-23.26,12.1,0,0,24.19.93,32.88-5.58s11.48-21.4,11.48-21.4l-7.44-12.41Z"/>
    <path class="cls-1" d="M290.51,199.67l47.76,6.2s-8.37,4.96-9.93,5.27-5.27,1.86-5.27,1.86c0,0,20.78,1.55,28.53-.31s13.96-4.96,13.96-4.96c0,0-1.55,2.79-3.1,3.72s-8.68,5.27-8.68,5.27c0,0,11.43,3.31,22.64-1.24,14.18-5.76,19.86-25.77,19.16-28.15-.9-3.06,7.13,1.86,12.41,9.93,2.31,3.53,6.27,12.03,6.27,16.06s-.6,23.77-.6,23.77c0,0,10.17-1.31,14.1-10.49,3.02-7.04.69-22.2-1.17-27.16-1.86-4.96-13.39-16.5-15.25-17.43s-7.22-2.62-7.22-2.62c0,0-7.2-13.79-19.66-17.73-9.35-2.95-30.69-6.03-45.89-3.55-15.2,2.48-23.57,8.68-32.26,16.44-8.68,7.75-15.82,25.12-15.82,25.12Z"/>
    <path class="cls-1" d="M285.67,253.17s-.51,15.27,2.55,19.86,9.93,8.66,9.93,8.66l-4.07-20.87-8.4-7.64Z"/>
    <path class="cls-1" d="M289.49,212.44l1.02,4.33s5.09,0,8.4,2.8,5.6,10.44,5.6,10.44l1.78-3.82-6.11-10.95-10.69-2.8Z"/>
    <path class="cls-5" d="M376.44,187.55s-5.08,13.36-8.02,16.57-5.96,7.34-5.96,7.34c0,0,9.7-6,12.37-10.01,2.67-4.01,1.6-13.9,1.6-13.9Z"/>
    <path class="cls-10" d="M286.73,212.15s-5.63,4.02-5.36,11.53"/>
  </g>
  <g id="Layer_2">
    <path class="cls-8" d="M300.76,365.11c-7.7-4.12-15.57-9.21-23.56-15.29-.95-.72-2.27-.69-2.96.09-5.52,6.35-10.92,12.84-16.19,19.49-.67.85-.44,2.24.54,3.06t0,0c.97.82,2.31.77,3-.1,4.47-5.68,9.03-11.25,13.67-16.7.68-.8,1.99-.87,2.94-.17,5.53,4.08,11.01,7.69,16.41,10.82.91.53,1.1,1.62.43,2.47-3.78,4.77-7.51,9.61-11.19,14.52-.67.88-1.95,1.15-2.87.56-1.66-1.05-3.32-2.14-4.99-3.28-.93-.63-1.14-1.85-.47-2.7,2.65-3.42,5.33-6.81,8.03-10.16.7-.87.49-2.07-.49-2.73t0,0c-.97-.65-2.34-.51-3.05.36-3.56,4.36-7.07,8.78-10.53,13.27-.66.85-.44,2.1.49,2.77,3.99,2.9,7.94,5.54,11.87,7.93.91.56,2.18.27,2.85-.62,5.4-7.21,10.9-14.26,16.48-21.18.69-.86.51-1.92-.41-2.41,0,0-.01,0-.02,0Z"/>
  </g>
  <g id="Ebene_2">
    <path class="cls-4" d="M303.2,227.49c-.9-2.93-2.47-5.55-4.6-7.01-4.36-2.83-10.45-1.46-13.51,2.72-4.7,6.3-5.99,15.8-3.14,23.11,2.3,5.11,7.33,7.77,12.97,8.29-2.8,1.76-6.52,1.69-9.61.64-6.96-2.13-9.95-10.02-10.08-16.63-.18-8.24,2.89-17.42,10.41-21.77,8.34-4.62,18.88.51,17.57,10.64h0Z"/>
    <path class="cls-4" d="M295.07,262.08c2.57,13.25,5.77,26.66,13.86,37.44,17.13,22.03,50.66,18.6,71.52,3.66,11.17-7.42,17.83-20.07,20.56-32.96,0,0,3.02.41,3.02.41-2.01,14.17-8.84,28.09-20.76,36.45-22.75,17.2-59.86,20.4-78.5-4.4-8.64-11.55-12.23-26.52-9.71-40.63h0Z"/>
    <path class="cls-4" d="M338.87,207.63c-15.99-3.38-32.35-5.2-48.65-6.02,0,0,2.07-1.32,2.07-1.32,0,0-4.99,12.27-4.99,12.27,0,0-1.7-2.91-1.7-2.91,1.39.25,2.71.53,4.05.82,4,.89,7.96,1.93,11.86,3.2l-.67,2.48c-6.09-1.3-12.36-2.09-18.57-2.5,1.16-2.85,5.47-13.45,6.66-16.38,8.8.56,17.5,1.54,26.21,2.79,8.2,1.18,16.35,2.68,24.41,4.6,0,0-.69,2.97-.69,2.97h0Z"/>
    <path class="cls-4" d="M300.77,214.61c6.99,11.56,16.33,27.96,29.47,32.65,4.65,1.5,9.54,2.34,14.41,2.03,5.01-.21,9.83-1.93,14.83-2.99,4.22-.85,8.54-.3,10.57,4.06,2.41,4.46,4.41,9.18,7.78,12.86,5.99,6.87,17.75,10.53,25.07,3.69,7.06-6.74,9.69-17.27,11.04-26.67,0,0,.63,1.69.63,1.69-11.16-9.25-24.14-16.07-37.35-21.92-1.91-.84-3.85-1.61-5.8-2.36l.92-2.62c8.14,2.54,16.06,5.65,23.61,9.65,7.89,4.21,15.62,8.77,22.14,15.01,0,0-.13.98-.13.98-1.96,12.89-7.58,31.95-23.01,33.28-7.38.35-14.75-3.06-19.54-8.58-2.4-2.72-4.24-5.82-5.84-8.9-1.16-2.12-2.11-4.5-3.62-6.23-.49-.49-.85-.52-1.45-.69-2.93-.65-6.19.67-9.17,1.46-4.98,1.53-10.5,2.53-15.82,2.15-5.39-.44-10.87-1.68-15.56-4.41-11.88-7.5-19.31-21-23.18-34.15h0Z"/>
    <path class="cls-4" d="M359.83,237.03c-4.14,8.12-14.53,11.68-22.86,8.56-4.05-1.64-7.46-4.78-9.42-8.76-4.23-8.21,0-19.5,8.89-22.49,14.04-4.69,30.55,7.76,23.39,22.69h0ZM356.82,235.61c2.38-5.09.92-11.23-3.44-14.64-4.28-3.23-10.72-4.66-15.82-3.27-7.34,2.04-11.25,11.29-8.02,18.22,5.73,12.35,21.67,11.75,27.28-.31h0Z"/>
    <path class="cls-4" d="M405.38,258.12c-2.73,5.37-8.61,9.62-14.84,8.53-3.95-.63-7.74-2.27-10.36-5.35-8-9.5-.76-27.69,12.48-26.39,10.92.84,17.91,13.54,12.72,23.21h0ZM402.35,256.53c4.61-8.88-5.1-21-14.72-17.71-9.49,3.34-11.91,19.84-1.71,23.91,6.89,3.24,13.31.59,16.43-6.2h0Z"/>
    <path class="cls-4" d="M343.51,267.2c3.27,3.78,5.64,7.6,9.28,10.58,4.54,3.56,13.55,3.42,16.81-1.76,3.33-6.05-.03-14.59-5.79-18.19,2.46.69,4.67,2.31,6.38,4.32,3.49,4.23,5.26,10.29,2.82,15.65-2.63,5.63-9.3,7.55-15.04,7.14-8.58-.58-16.12-9.07-14.46-17.74h0Z"/>
    <path class="cls-4" d="M299.94,234.56c-2.36-2.47-4.3-5.68-6.75-7.69-1.07-.85-2.33-.83-3.72-.73-1.57.16-3.27.6-5.15,1.09,1.63-2.83,5.07-4.88,8.48-4.32,4.82,1.14,7.05,7.3,7.15,11.65h0Z"/>
    <path class="cls-4" d="M407.68,262.97c9.15,2.82,8.62,13.5,4.71,20.47-2.78,5.18-7.6,9.75-13.59,10.92-2.05.32-4.45-.04-5.97-1.56,0,0,.43-1.04.43-1.04,3.4-.41,6.06-1.37,8.81-3.26,7.19-5.19,13.8-17.72,5.17-24.49,0,0,.44-1.04.44-1.04h0Z"/>
    <path class="cls-4" d="M409.8,237.46c3.42-12.56,3.96-26.9-2.11-38.74-2.15-3.87-5-7.44-8.46-10.43,4.47,2.65,8.27,6.49,10.99,10.94,6.72,11.83,7.19,26.41,4.19,39.45,0,0-4.61-1.21-4.61-1.21h0Z"/>
    <path class="cls-4" d="M316.28,259.97c10.35,15.24,24.16,30.34,43.46,32.36,6.18.78,12.53.74,18.89.04-6.07,2.14-12.6,3-19.14,2.72-20.22-.46-36.35-17.19-43.22-35.12h0Z"/>
    <ellipse class="cls-4" cx="342.82" cy="234.29" rx="8.98" ry="6.33" transform="translate(54.14 532.76) rotate(-80.3)"/>
    <ellipse class="cls-4" cx="388.84" cy="253.5" rx="8.73" ry="5.82" transform="translate(54.06 575.02) rotate(-76.94)"/>
    <path class="cls-11" d="M302.83,293.92c-4.14,9.04-8.5,14.14-8.5,14.14"/>
    <path class="cls-11" d="M325.61,314.08c-7.16,6.41-8.36,8.39-8.36,8.39"/>
    <path class="cls-4" d="M316.77,261.19c-1.62,14.59.12,32.54,13.87,40.67,6.38,3.84,14.08,5.31,21.4,3.61,7.34-1.69,14.17-5.96,20.03-11.36-4.4,6.84-11.26,12.37-19.09,14.85-8.17,2.64-17.32,1.06-24.57-3.33-9.44-5.31-14.34-16.16-14.99-26.6-.47-6.13.07-12.28,1.66-18.22,0,0,1.69.38,1.69.38h0Z"/>
    <path class="cls-4" d="M315.98,274.18c5.16,8.49,11.74,16.67,20.22,22.01,5.82,3.29,12.03,6.14,18.56,7.63,1.06.22,2.23.38,3.16.4l.23,1.66c-7.2.49-13.99-2.49-20.4-5.36-10.68-5.23-18.56-14.81-24.07-25.14,0,0,2.3-1.2,2.3-1.2h0Z"/>
    <path class="cls-4" d="M318.19,290.18c4.19.14,8.32,1.19,11.81,3.66,3.41,2.65,6.1,6.68,5.49,11.17,0,0-1.2-.06-1.2-.06-2.24-8.16-8.44-11.75-16.23-13.57,0,0,.12-1.19.12-1.19h0Z"/>
    <path class="cls-4" d="M300.88,317.32c-1.68-1.67-2.29-3.85-3.62-5.33-.74-.61-1.7-.29-2.69-.02-2.9.83-5.37,3.31-5.46,6.41-.03.57.04,1.16.18,1.56.05.18.2.37.08.21-.25-.16,0-.01.24,0,1.1.18,2.58.13,3.95.03,1.39-.1,2.83-.26,4.2-.45l.44,3.57c-1.51.14-2.97.24-4.48.29-1.62.02-3.06.08-4.74-.22-.46-.13-.96-.14-1.76-.78-2.29-2.51-1.26-6.74.37-9.25,2-2.89,5.17-4.5,8.65-4.79,1.99-.2,3.9,1.56,4.74,3.1.81,1.3,1.49,2.33,2.4,3.07l-2.49,2.6h0Z"/>
    <path class="cls-4" d="M297.41,319.14c.07-.07.11-.19.11-.29,0-.03.01.04.02.06l.04.17c.8,3.07,1.76,7.41,4.05,9.46,2.72,1.89,8.46.55,8.57-3.17,0-3.16-2.61-6.13-5.45-7.39-1.93-.68-4.33.48-6.26.98-.35.12-.94.3-1.28.43-.03,0-.06.03.02-.02.08-.06.16-.15.19-.24h0ZM296.18,318.46c.13-.23.41-.35.62-.49.73-.46,1.53-.92,2.31-1.31,1.41-.69,2.88-1.35,4.51-1.58,3.04-.13,5.62,1.75,7.55,3.88,3.49,3.74,3.71,10.23-1.38,12.68-3.2,1.63-7.38,1.73-10.21-.76-1.87-1.86-2.38-3.97-2.89-5.97-.39-1.88-.6-3.77-.6-5.68,0-.26-.03-.56.09-.79h0Z"/>
    <path class="cls-4" d="M291.21,323.7c-5.05,1.89-10.42,4.48-14.15,8.45-3.55,5-9.69,7.27-15.59,7.72,0,0,.07-.94.07-.94,6.44.26,13.09.96,19.41.33,1.51-.18,2.98-.52,4.1-1.05.9-.47,2.9-1.86,3.88-2.51,4.11-2.76,8.47-6.16,12.17-9.36,0,0-1.42,5.41-1.42,5.41-1.21,5.25-.89,11.3,1.8,16.1,2.87,4.95,7.01,9.3,11.21,13.21,0,0-.94.58-.94.58-1.32-5.39-1.44-11.02-.5-16.48.73-4.93-.18-10.24-3.06-14.32,0,0,2.89-2.14,2.89-2.14,1.63,2.58,2.49,5.38,2.91,8.35.55,3.54.03,7.11-.82,10.52-.94,4.51-1.03,9.26-.3,13.81,0,0,.27,1.6.27,1.6l-1.2-1.02c-10.3-8.46-18-16.73-15.77-31.05,0,0,3.02,1.7,3.02,1.7-3.7,3.98-7.64,6.87-12.34,9.48-7.79,2.95-18.06.56-25.54-2.22,0,0-2.9-1.17-2.9-1.17l2.97.23c4.09-.66,8.26-2.15,11.33-4.96,1.07-.93,1.77-2.12,2.6-3.24,3.89-4.78,9.1-7.79,14.59-10.37,0,0,1.29,3.36,1.29,3.36h0Z"/>
    <path class="cls-4" d="M305.94,330.04c-1.11,3.65-1.43,7.73-1.5,11.6-.58-1.92-1.05-3.89-1.42-5.89-.37-2.01-.64-4.05-.64-6.23l3.56.52h0Z"/>
    <path class="cls-4" d="M276.3,294.07c8.18,3.23,15.2,8.8,20.99,15.4,0,0-2.93,2.09-2.93,2.09-4.59-7-10.69-13.34-18.06-17.49h0Z"/>
    <path class="cls-4" d="M312.52,319.55c3.5,1.54,7.46,1.59,11.16.56,1.1-.35,2.34-.64,3.22-1.42.11-.11.22-.26.12-.43.38.25.09.82-.08,1.12-3.45,4.78-10.89,6.23-16.04,3.39,0,0,1.63-3.21,1.63-3.21h0Z"/>
    <path class="cls-4" d="M288.66,315.68c-10.23-9.12-17.02-18.68-32.25-13.77,0,0-.67-1.76-.67-1.76,10.85-4.13,19.61-.91,27.87,6.54,2.48,2.12,4.87,4.25,7.35,6.21l-2.3,2.77h0Z"/>
    <path class="cls-4" d="M300.59,297.81c-4.63-4.48-11.4-5.95-17.58-7.13-9.27-1.62-18.85-1.29-27.87,1.47-5.05,1.52-10.18,3.69-14.49,6.66,0,0-1.93-3.04-1.93-3.04,2.61-1.38,5.12-2.46,7.74-3.51,13.34-5.42,27.04-6.72,41.14-3.73,5.6,1.27,11.7,2.84,15.87,7.11,0,0-2.88,2.17-2.88,2.17h0Z"/>
    <path class="cls-4" d="M268.6,301.48c-12.25,2.19-32.91,1-42.97-6.94-5.74-5.34-4.89-18.35-4.69-25.62.42-7.64,1.36-15.15,2.77-22.65l3.55.58c-.88,7.38-1.58,14.86-1.87,22.27-.15,5.48-.25,11,.74,16.35.49,2.21.91,4.24,2.38,5.69,5.05,4.04,11.59,5.46,17.89,6.69,7.28,1.28,14.69,2.08,22.19,3.63h0Z"/>
    <path class="cls-4" d="M204.74,244.01c-4.03,17.2-8.39,44.75,2.92,59.67,6.27,7.95,15.97,12.63,25.48,15.91,10.04,3.38,20.3,4.84,30.54,7.84-8.07,1.26-16.19.26-24.06-1.6-13.21-3.22-26.84-8.25-35.73-19.2-10.14-13.43-8.79-32.27-6.34-47.91.94-5.32,2.12-10.52,3.73-15.73l3.45,1.02h0Z"/>
    <path class="cls-4" d="M312.46,326.12c4.59,1.64,14.37,4.49,18.46,1.24,2.13-2.94.29-7.68-.74-10.92,0,0,1.05-.6,1.05-.6,2.52,3.63,5.29,9.28,2.4,13.62-4.94,5.81-16.8,2.86-22.67-.08,0,0,1.51-3.27,1.51-3.27h0Z"/>
    <path class="cls-11" d="M331.33,328.83c5.62.8,10.26,7.24,25.68,7.62,16.05.4,23.28-.16,42.24-7.23,16.11-6.01,38.76-27.08,38.76-27.08"/>
    <path class="cls-4" d="M330.2,346.11c-6.94,41.64-33.34,43.93-51.69,75.29-2.13,3.62-4.07,7.52-5.42,11.47,0,0-3.51-.78-3.51-.78.96-4.67,2.71-8.78,4.82-12.94,4.2-8.08,9.97-15.28,16.49-21.58,6.4-6.17,13.25-11.62,19.23-18.1,9.23-9.5,14.69-21.22,20.08-33.35h0Z"/>
    <path class="cls-4" d="M338.59,351.74c-3.1,6.04-7.55,11.94-14.04,14.59-.55.2-.93.35-1.58.48,0,0-.4-3.58-.4-3.58,1.52-.1,3.03-.67,4.44-1.3,4.68-2.18,8.5-6.08,11.57-10.19h0Z"/>
    <path class="cls-4" d="M240.04,325.01c3.55,3.57,7.94,6.46,12.76,8.18-2.6-.27-5.19-.93-7.7-1.82-2.52-.89-4.97-2.08-7.3-3.54l2.25-2.81h0Z"/>
    <path class="cls-4" d="M331.1,358.97c13.77,1.84,27.98,1.09,41.72-.85,8.27-1.15,16.61-2.94,24.66-5.18,10.63-3.08,20.64-8.26,29.77-14.65,9.05-6.4,17.59-14,24.64-22.52,0,0,2.86,2.19,2.86,2.19-3.63,4.62-7.57,8.75-11.76,12.73-12.63,11.84-27.5,21.55-44.27,26.49-16.6,4.7-33.79,7.38-51.06,7.03-5.82-.15-11.52-.55-17.29-1.72,0,0,.73-3.53.73-3.53h0Z"/>
    <path class="cls-4" d="M453.51,304.2c1.44-3.77,3.5-8.14,2.82-12.04-1.37-4.23-5.68-7.02-9.32-9.2,0,0,.56-1.31.56-1.31.69-1.62,2.52-5.92,3.2-7.49,0,0,1.32,2,1.32,2,2.75,3.03,7,6.67,11.17,4.88,0,0,.22-.11.22-.11.14-.08.14-.05.21-.14.28-.69-.02-1.63-.31-2.46-1.64-4.03-5.05-7.86-9.08-9.68-7.89-3.62-12.25,6.69-13.89,12.93-2.14,5.91.75,11.92,3.81,17,0,0,.74,1.14.74,1.14l-.87,1.02-5.13,6.02-2.74-2.34,5.13-6.02s-.13,2.16-.13,2.16c-2.95-4.83-5.79-10.26-5-16.14,1.58-8.85,7.91-23.62,19.25-18.4,4.78,2.32,8.43,6.5,10.35,11.43.72,1.91,1.01,4.94-1.47,5.86-5.4,2.39-10.75-1.65-14.35-5.36,0,0,2.36-.45,2.36-.45l-1.36,5.3-.85-2.16c10.57,6.15,12.05,14.77,3.38,23.56h0Z"/>
    <path class="cls-4" d="M458.04,268.15c7.46-5.42,16.21-1.2,16.57,8.02,0,0-2.03-1.88-2.03-1.88,3.32.15,7.24.58,9.17,3.66,1.7,3.06,1.58,6.15,1.51,9.5,0,0-1.06-2.01-1.06-2.01,2.66,1.57,3.6,4.93,3.97,7.74.71,5.5-2.81,10.77-7.37,13.65-2.56,1.53-5.59,1.76-8.45.96l1.97-.52c-4.46,4.87-9.62,6.68-16.13,5.48,0,0,1.47-.57,1.47-.57l-4.47,5.88-2.8-2.26,4.8-5.62.6-.7c5.76,1.02,9.88-.11,13.8-4.56,0,0,1.97-.52,1.97-.52,4.2,1.69,8.21-1.22,10.36-4.79,1.81-2.71,2.06-6.27.53-9.13-.42-.73-.91-1.43-1.67-1.75-.01,0-.09-.03.02.03l-1.06-2.01c1.02-3.14,1.43-8.54-2.92-9.1-1.19-.21-2.63-.13-3.76.21l-2.03-1.88c.04-.21.05-.62.04-.94-.16-6.03-6.43-8.3-10.67-4.16,0,0-2.35-2.73-2.35-2.73h0Z"/>
    <path class="cls-4" d="M474.61,276.08c.33,6.48-2.63,13.58-8.68,16.58-2.02.94-4.62,1.07-6.43-.18,5.72-1.14,9.34-5.61,10.7-10.99.44-1.75.68-3.55.81-5.4h3.6Z"/>
    <path class="cls-4" d="M483.06,288.17c-1.82,6.03-8.58,13.76-15.44,12.88-3.26-.74-5.49-4.15-5.13-7.37.57,2.32,2.11,4.22,4.02,4.91,5.2,1.75,11.57-7.35,13.14-11.58,0,0,3.41,1.16,3.41,1.16h0Z"/>
    <path class="cls-4" d="M470.86,308.01c-2.89-1.42-4.3-4.65-4.16-7.75,0,0,1.91-.05,1.91-.05.1.48.28,1.08.49,1.57.58,1.38,1.64,2.55,3.1,2.88,0,0-1.34,3.34-1.34,3.34h0Z"/>
    <path class="cls-4" d="M435.82,301.05c3.51,3.07,6.39,6.66,9.73,9.79,2.54,2.28,5.43,4.35,8.13,6.42,0,0-1.85,3.09-1.85,3.09-7.73-3.93-13.41-11.09-16.01-19.3h0Z"/>
    <path class="cls-4" d="M243.14,325.36c-3.21,14.67-9.21,29.06-19.57,40.12-2.82,2.82-6.2,5.26-9.53,7.27-5.33,3.28-10.93,5.87-14.93,9.93l-2.61-2.48c6.56-6.79,15.77-9.76,22.53-16.12,8.54-8.33,13.63-19.62,17.07-30.92.84-2.86,1.59-5.84,2.08-8.66l4.96.85h0Z"/>
    <path class="cls-4" d="M91.42,448.91c20.34-7.81,40.01-17.5,58.38-29.23,10.81-7.2,20.84-15.7,30.23-24.64,0,0,2.62,2.47,2.62,2.47-9,9.91-19.11,18.69-30.25,26.11-11.16,7.11-23.04,13.44-35.08,18.93-8.06,3.68-16.32,6.89-24.68,9.74l-1.22-3.39h0Z"/>
    <path class="cls-4" d="M196.77,378.52c.97.15,1.6.99,2.2,1.67.56.62,2.33,2.56,2.94,3.21,11.88,12.67,24.64,24.81,39.62,33.74,9.8,5.92,20.27,11.25,31.38,14.08,0,0,2.37.54,2.37.54l-1.21,2.13s-12.07,20.59-12.07,20.59l-.98,1.67-1.61-1.11c-5.86-4.26-12.93-8.04-20.18-8.92-7.38-.63-15.13.64-22.31,2.42,0,0-.36.09-.36.09l-.46-.1c-7.18-1.23-14.09-4.97-18.26-11.08,0,0-.34-.55-.34-.55l.06-.52c.33-5.65.04-11.64-1.57-17.09-3.5-9.63-10.56-17.76-17.5-25.15,5.93-5.37,12.19-10.66,18.29-15.64h0ZM196.58,382.12c-4.78,4.69-9.41,9.14-14.31,13.49l.11-2.57c6.53,7.73,13.07,15.69,16.55,25.33,1.79,5.96,2.19,12.02,2.22,18.22,0,0-.28-1.06-.28-1.06,4.08,4.84,10.15,7.57,16.06,9.52,0,0-.82,0-.82,0,7.8-1.3,15.48-2.44,23.42-1.72,8.04,1.05,15.1,4.71,21.95,8.78,0,0-2.59.56-2.59.56l12.07-20.59s1.16,2.67,1.16,2.67c-15.23-4.47-29.06-12.54-42.01-21.56-11.91-8.73-22.49-18.97-32.75-29.52,0,0-1.01-1.07-1.01-1.07l-.51-.54-.25-.27c-.05-.06.03.04.1.09.23.19.6.28.88.23h0Z"/>
    <path class="cls-4" d="M96.12,473.5c17.81-3.9,35.89-8.04,52.91-14.51,16.98-6.6,33.61-14.46,48.61-24.85,0,0,2.06,2.62,2.06,2.62-22.01,17.39-48.67,28.16-75.73,34.62-9.03,2.16-18.1,3.96-27.27,5.4l-.58-3.29h0Z"/>
    <path class="cls-4" d="M261.06,454.53c-10.21,17.67-25.28,39.98-42.93,50.66-14.41,8.14-34.37,5.36-49.86,2.02-5.43-1.26-10.75-2.72-16.08-4.58l1.3-3.62c10.22,3.38,20.96,5.76,31.67,6.85,10.43.84,21.56.99,30.86-4.34,16.94-10.46,31.27-32.04,41.7-48.88,0,0,3.35,1.89,3.35,1.89h0Z"/>
    <path class="cls-4" d="M218.58,447.39c-3.48,9.52-11.6,31.81-22.7,33.51-11.81,2.4-23.94,1.46-35.76-.46,0,0,.66-3.54.66-3.54,6.02,1,12.24,1.57,18.37,1.65,5.94.01,12.13-.24,17.8-1.96,5.09-2.7,7.92-8.51,10.63-13.46,2.76-5.45,5.09-11.25,7.04-17.04l3.95,1.29h0Z"/>
    <path class="cls-4" d="M401.82,268.84c4.67-4.65,10.84,3.58,7.76,8.08-.8-3.78-3.39-6.46-7.23-7.03,0,0-.54-1.04-.54-1.04h0Z"/>
    <path class="cls-4" d="M93.12,449.99c-10.97,2.92-21.73,6.25-32.91,8.4-4.58.7-8.81-1.44-13.27-1,0,0-1.05.09-1.05.09.11,0,.24-.05.31-.1-1.17,1.96-1.89,4.94-2.48,7.42-1.73,7.76-8.11,46.18-3.01,50.65.71-.14,1.87-.66,2.53-1.17,9.38-7.58,11.76-22.54,13.97-33.81,0,0,.3-1.62.3-1.62l1.67-.12c8.92-.66,18.79-1.49,27.74-2.34,3.06-.32,6.16-.63,9.11-1.09l.63,3.54c-5.37.97-13.11,1.74-18.58,2.39-6.17.67-12.34,1.3-18.53,1.9l1.98-1.74c-.84,3.15-1.66,6.27-2.57,9.39-2.63,9.03-6.52,20.82-14.68,26.26-.8.43-1.7.85-2.59,1.07-.5.16-1.43.21-2.01-.03-4.17-1.74-4.02-11.69-4.34-15.57-.46-13.06,1.86-25.89,4.79-38.59.87-2.81,2-9.84,5.63-10.01,3.17-.39,6.73.18,9.72.81,3.1.65,5.78-.09,8.82-.77,9.33-2.2,18.61-4.8,27.83-7.45,0,0,.99,3.46.99,3.46h0Z"/>
    <path class="cls-4" d="M159.87,478.58c-8.65-3.17-17.11-6.54-24.76-11.73,0,0,1.32-1.75,1.32-1.75,7.49,4.51,16.18,7.49,24.51,10.04,0,0-1.06,3.44-1.06,3.44h0Z"/>
    <path class="cls-4" d="M117.38,472.41c-6,7.15-10.43,15.79-13.36,24.69-1.08,3.61-2.37,7.42-1.79,11.07.06.28.16.52.29.68,3.76,1.35,8.74-3.24,11.62-5.66,5.19-4.58,9.26-10.32,12.62-16.34,0,0,1.61,1.12,1.61,1.12,7.96,5.37,16.28,10.76,25.37,13.96,0,0-1.09,3.43-1.09,3.43-4.86-1.62-9.3-3.95-13.71-6.45-4.35-2.49-8.52-5.14-12.64-8,0,0,2.57-.53,2.57-.53-1.85,2.76-3.76,5.38-5.88,7.92-3.79,4.42-16.56,17.67-22.53,12.09-3.16-4.79,1.75-18.46,3.96-23.44,2.65-5.99,5.93-11.76,10.21-16.87l2.75,2.33h0Z"/>
    <path class="cls-4" d="M93.74,447.31c-1.87,8.86-1.18,18.39,3.18,26.43.57,1.14,1.26,2.3,1.91,3.29l-2.45,1.89c-5.2-6.84-7.58-15.59-6.61-24.08.34-2.8.9-5.51,1.93-8.2l2.04.67h0Z"/>
    <path class="cls-4" d="M162.77,477.33c-6.68,8.97-9.76,15.71-8.23,27.09,0,0-2.63.62-2.63.62-.75-2.67-1.09-5.29-1.14-8.02-.19-5.42,1.7-11.08,4.88-15.45,1.57-2.2,3.33-4.18,5.44-5.92l1.67,1.67h0Z"/>
    <path class="cls-4" d="M216.02,315.79c-15.92,8.63-50.15,11.01-68.28,8.86-12.91-1.61-25.32-6.59-38.33-6.7-1.58.01-3.16.12-4.7.34-4.56.83-8.24,4.13-11.54,7.35-6.73,6.93-12.16,15.13-16.94,23.5,0,0-1.05-1.51-1.05-1.51,2.8-.59,5.61-1.15,8.43-1.62,8.35-1.44,16.87-2.77,25.32-3.44,6.46.61,11.53,19.13,11.75,24.82.61,6.85.51,18.47,9.04,19.8,9.33.32,21.45-6.46,30.07-.59,6.08,4.17,11.07,9.58,15.73,15.21,0,0-2.85,2.2-2.85,2.2-4.29-5.42-8.97-10.8-14.64-14.77-5.44-3.9-13.44-1.07-19.64-.12-4.17.69-9.72,2.18-13.56-.75-6.54-4.66-6.53-13.6-7.34-20.69-.6-5.42-2.33-10.85-4.7-15.76-.94-1.88-2.65-4.98-3.99-5.76-4.54.34-11.68,1.37-16.27,1.88-6.34.82-12.76,1.16-19.1,1.94,3.46-6.41,7.28-12.58,11.66-18.4,4.08-5.27,8.39-10.47,14.27-13.92,10.28-5.59,28.24.48,39.23,2.46,12.64,2.88,25.66,2.56,38.52,1.39,6.44-.6,12.87-1.49,19.17-2.8,6.14-1.34,12.51-2.96,17.94-6.03,0,0,1.81,3.11,1.81,3.11h0Z"/>
    <path class="cls-4" d="M108.88,342.57c19.14-.33,39.07-.24,58.08-1.85,14.5-.85,28.64-4.23,42.11-9.63,4.54-1.71,9.01-3.6,13.45-5.58-12.78,7.01-26.34,13.23-40.73,16.17-19.21,3.71-38.83,4.23-58.32,4.54-4.87.02-9.73.03-14.6-.05v-3.6h0Z"/>
    <path class="cls-4" d="M149.47,383.83c13.62-1.01,27.15-4.54,40.15-8.84-6.33,2.78-12.82,5.23-19.42,7.39-6.61,2.13-13.36,3.95-20.34,5.03l-.38-3.58h0Z"/>
    <path class="cls-4" d="M202.81,241.71c-11.69-12.57-6.32-32.18,1.2-45.45,2.07-3.4,8-15.02,12.94-12.31,5.65,3.51-1.43,14.29-3.06,18.61-1.51,3.51-2.81,7.22-3.98,10.9l-1.32-.34c.85-3.87,1.86-7.65,3.26-11.41,1.02-3.36,5.97-12.26,3.95-15.03-.11-.09-.29-.22-.38-.23-.84.19-1.65,1.06-2.37,1.84-2.37,2.76-4.3,6.18-6.09,9.55-4.28,8.38-7.74,17.57-7.51,27.05.29,5.8,1.99,11,3.36,16.81h0Z"/>
    <path class="cls-4" d="M222.16,210.29c1.86-5.93,3.62-11.84,5.05-17.86.79-3.71,1.65-7.42,1.57-11.15-.03-.69-.19-1.45-.36-1.64-2.33-.69-4.03,1.76-5.33,3.6-5.83,9.05-8.06,19.77-10.26,30.2,0,0-3.51-.82-3.51-.82,2.59-9.05,4.73-18.28,9.28-26.63,1.89-3.34,3.81-7.55,7.85-8.77,4.66-.89,4.98,2.81,4.75,6.39-.54,6.34-2.07,12.37-3.47,18.51-.69,3.03-1.45,6.06-2.09,9.07l-3.48-.91h0Z"/>
    <path class="cls-4" d="M225.49,244.05c2.65-4.02,6.41-6.8,10.59-9.01.95-.5,1.83-1.06,2.56-1.88,1.89-2.05,2.81-4.81,4.74-7.12,2.01-2.45,5.23-3.56,7.97-4.8,1.55-.77,3.71-1.47,4.45-2.85.03-2.68-4.8-3.42-6.96-2.99-5.28,1.25-10.24,4.61-14.4,8.05,0,0-4.51,3.83-4.51,3.83,2.26-7.89,4.58-16.02,7.3-23.76,1.84-5.72,4.22-11.74,4.7-17.67.01-.86.02-1.75-.36-2.33-.84-.2-2,.75-2.94,1.86-3.78,4.66-5.56,11.01-8.03,16.49,0,0-3.71,8.68-3.71,8.68l-3.27-1.52c2.09-4.18,4.15-8.42,6.03-12.69,1.93-4.45,3.65-8.87,6.85-12.79,1.86-2.51,6.55-4.65,7.93-.43.95,4.23-.28,8.45-1.04,12.42-.73,3.11-1.61,6.16-2.61,9.16-1.98,5.92-3.82,11.9-5.75,17.85l-2.85-1.92c2.5-1.79,5.01-3.31,7.67-4.7,4.1-2.04,8.78-4.26,13.45-2.88,3.79.85,7.32,5.28,3.18,8.3-3.47,2.61-7.9,3.3-10.66,6.64-1.76,2.42-3.27,7.11-6.62,9.15-.43.32-.92.54-1.39.8-4.15,2.02-7.76,4.59-12.31,6.09h0Z"/>
    <path class="cls-4" d="M203.13,215.55c9.08-5.59,20.48-7.44,30.76-4.44-4.47,1.2-10.74,1.87-15.32,2.54-5.1.77-10.18,1.79-15.44,1.9h0Z"/>
    <path class="cls-4" d="M231.8,224.77c-7.36-.86-13.3.68-16.42,8.05-1.06,2.15-1.95,4.44-2.86,6.78-.09-2.52.25-5.03.9-7.51,1.67-7.29,7.64-11.34,15.03-11.22,1.35.01,2.61.08,4.04.37l-.69,3.53h0Z"/>
    <path class="cls-4" d="M202.67,242.87c7.24,3.55,15.8,4.15,23.69,3.04l.74,2.65c-4.35,1.43-8.81,1.6-13.28.99-4.46-.68-8.78-2.24-12.24-5.26,0,0,1.08-1.43,1.08-1.43h0Z"/>
    <path class="cls-4" d="M307.78,227.05c-2.98,9.38-6.41,19.26-13.77,26.14-7.55,6.54-16.65,10.59-25.99,13.76,0,0-.11-1.53-.11-1.53,9.35.5,19.83-.05,27.8-5.15,5.79-4.11,10.12-10.12,13.62-16.25,1.16-2.08,2.19-4.34,2.96-6.46l2.91.75c-2.15,8.3-6.77,15.47-12.74,21.44-8.89,9.09-23.07,9.62-34.81,7.23,0,0-2.8-.61-2.8-.61l2.69-.92c8.9-3.25,17.9-7.53,24.92-13.93,6.79-6.69,9.81-16.29,12.43-25.22,0,0,2.9.76,2.9.76h0Z"/>
    <path class="cls-4" d="M404.47,182.33c-5.13-10.25-16.22-16.45-26.68-20.04-21.54-7.45-47.09-4.79-64.97,9.84-8.89,7.2-15.25,17.19-18.73,28.05,0,0-3.84-1.12-3.84-1.12,1.6-5.89,3.93-11.65,7.21-16.89,16.7-27.33,53.01-35.25,81.85-24.33,10.99,3.94,24.57,11.37,25.16,24.49h0Z"/>
    <path class="cls-4" d="M400.4,178.82c20.63-.24,34.68,23.99,30.6,42.8-1.5,6.61-6.38,12.49-12.56,14.42,5.01-3.95,8.07-9.41,8.89-15.16.91-5.78-.4-11.74-2.35-17.41-3.74-11.56-12.78-21.18-24.58-24.65h0Z"/>
    <path class="cls-4" d="M408.67,185.25c10.68,9.11,15.69,26.18,8.04,38.66,3.07-14.37-1.18-26.19-8.04-38.66h0Z"/>
    <path class="cls-4" d="M397.83,182.07c.84,10.38-3.2,21.01-10.42,28.51-5.6,5.78-13.95,8.02-21.76,7.85-2.55-.04-5.1-.33-7.56-.94,5.03-.27,9.95-1.03,14.52-2.56,15.13-4.37,19.58-19.83,25.22-32.85h0Z"/>
    <path class="cls-4" d="M379.16,187.2c.87,6.92-1.23,14.64-6.59,19.35-.51.43-1.59,1.25-2.15,1.61-4.98,3.26-10.33,5.94-16.01,7.74,2.69-2.09,5.43-4.02,8.14-5.96,1.92-1.39,5.17-3.7,7-5.12,5.32-4.45,7.37-11.16,9.61-17.62h0Z"/>
    <path class="cls-4" d="M355.99,190.88c-4.5,10.37-14.88,16.74-25.21,20.28-3.46,1.22-6.95,2.25-10.56,3,0,0-.17-2.35-.17-2.35,10.23.09,20.49.15,30.6-1.47,1.86-.35,3.99-.78,5.76-1.37,3.65-1.17,6.65-3.6,9.29-6.45,3.63-3.89,6.58-8.58,9.25-13.48-1.14,5.57-3.45,10.85-6.79,15.5-2.98,4.13-7.42,7.79-12.53,8.99-13.49,3.56-27.6,2.42-41.09-.31,5.04-1.23,10.34-3.19,15.16-5,10.06-3.59,19.41-8.99,26.29-17.34h0Z"/>
    <path class="cls-4" d="M345.46,193.25c-9.91,4.92-20.8,7.66-31.74,9.13,0,0-.24-2.99-.24-2.99,10.86-.46,21.81-2.19,31.98-6.14h0Z"/>
    <path class="cls-4" d="M349.14,186.94c-12.77,3.87-26.04,5.85-39.31,7.03-4.44.38-8.87.67-13.37.79l.03-3c17.62.32,35.46-.72,52.65-4.82h0Z"/>
    <path class="cls-4" d="M299.97,180.97c21.3-2.89,43.11-1.77,64.18,2.28-2.68-.14-5.34-.31-8.02-.4-13.3-.61-26.63-.73-39.92-.11-5.15.23-10.75.73-15.86,1.2,0,0-.38-2.98-.38-2.98h0Z"/>
    <path class="cls-4" d="M311.93,168.59c20.39-.46,44.6.38,62.9,10.17,1.23.72,2.46,1.46,3.54,2.39-1.7-1.3-3.62-2.25-5.55-3.15-13.73-5.92-28.96-7.02-43.75-7.14-4.97.04-11.96.37-16.97.73,0,0-.17-3-.17-3h0Z"/>
    <path class="cls-10" d="M286.03,266.4s2.71,11.15,12.36,15.67"/>
  </g>
</svg>