<?xml version="1.0" encoding="UTF-8"?>
<svg id="Ebene_5" xmlns="http://www.w3.org/2000/svg" viewBox="0 0 550.09 518.27">
  <defs>
    <style>
      .cls-1 {
        fill: #f4cb46;
      }

      .cls-2 {
        fill: #785a42;
      }

      .cls-3 {
        fill: #e5ba42;
      }

      .cls-4 {
        fill: #1d1d1b;
      }

      .cls-5 {
        fill: #efbeab;
      }

      .cls-6 {
        fill: #853a43;
      }

      .cls-7 {
        fill: #d3808d;
        opacity: .8;
      }

      .cls-8 {
        fill: #fff;
      }

      .cls-9 {
        fill: #dbb045;
      }

      .cls-10 {
        fill: none;
        stroke: #1d1d1b;
        stroke-miterlimit: 10;
        stroke-width: 3.6px;
      }

      .cls-11 {
        fill: #c52861;
      }
    </style>
  </defs>
  <g id="Ebene_3">
    <path class="cls-11" d="M91.65,451.68s31.34-11.65,49.82-22.9c18.48-11.25,44.59-30.13,44.59-30.13,0,0,6.83,6.03,10.04,15.67,3.21,9.64,2.41,22.9,2.41,22.9,0,0-26.11,16.47-51.02,24.51-24.91,8.03-50.22,13.66-50.22,13.66,0,0-5.62-6.03-5.62-10.85v-12.86Z"/>
    <path class="cls-11" d="M160.35,478.59s28.52,4.42,38.17-2.41c9.64-6.83,19.28-28.52,19.28-28.52,0,0,6.43-4.02,19.69-1.21,13.26,2.81,16.47,7.63,16.47,7.63,0,0-22.5,48.61-43.39,52.63s-44.59-1.21-44.59-1.21l-12.86-4.42s-.8-8.03,1.21-12.86c2.01-4.82,6.03-9.64,6.03-9.64Z"/>
    <path class="cls-11" d="M202.13,383.38s13.26,20.89,31.74,30.53c18.48,9.64,34.15,18.48,34.15,18.48,0,0,32.14-27.72,38.97-37.36,6.83-9.64,18.08-28.93,18.08-28.93l8.03-4.02s23.3,6.83,57.05-3.21c33.75-10.04,51.42-27.72,54.24-30.93s7.63-9.64,7.63-9.64c0,0-6.03-5.22-7.23-6.03s-8.44-8.84-8.44-8.84c0,0-30.53,25.71-52.23,30.13-21.69,4.42-33.75,2.41-37.36,2.01s-14.46-5.62-14.46-5.62c0,0-5.62,2.41-11.25,2.41s-32.94-19.28-32.94-19.28c0,0-10.45-12.45-17.27-12.45s-11.65,1.21-17.68,1.21-19.28-4.82-26.52-12.45c-7.23-7.63-8.84-40.98-8.84-40.98,0,0-9.24.8-12.05.4-2.81-.4-9.64-1.21-9.64-1.21,0,0-4.02,28.52,2.41,46.2,6.43,17.68,11.25,19.69,19.28,24.51,8.03,4.82,21.69,6.43,21.69,6.43,0,0-16.47,34.15-21.29,40.17-4.82,6.03-16.07,18.48-16.07,18.48Z"/>
    <path class="cls-5" d="M295.33,309.14l6.52-12.22s-4.48-7.74-6.11-19.15,0-22.4,0-22.4c0,0-5.7,5.3-13.04-2.85-7.33-8.15-5.3-21.59-2.04-28.11,3.26-6.52,15.07-8.15,16.29-6.92s7.74,3.26,7.74,3.26c0,0,101.84-24.85,107.95-20.77s2.8,39.99,2.8,39.99l-8.91,25.19s13.44,3.26,7.74,14.66-17.52,15.48-19.15,15.48-8.15,10.59-12.22,12.63-11,9.37-28.92,11.81c-17.92,2.44-30.55-4.89-30.55-4.89l-6.52,7.74-6.52-1.63-4.48-4.07-3.67-.41-6.92-7.33Z"/>
    <path class="cls-2" d="M413.45,203.37s-7.33,6.92-34.62,11.41-55.81,4.89-57.44,2.85,19.96-9.37,21.18-9.78,11.41-2.85,11.41-2.85c0,0-37.07,3.26-43.59-.41s14.66-7.33,14.66-7.33l-17.13,5.26-5.67,11.08,10.17,21.14s-2.44,2.85-5.3,4.48-8.96,3.67-8.96,3.67l5.3-17.2s-2.77-7.16-7.25-7.98-12.71,2.37-12.71,2.37c0,0-6.29.03-7.74-.81-4.15-2.43,13.44-10.18,13.44-10.18,0,0-15.84,1.84-17.07-.19s21.55-13.25,21.55-13.25c0,0-16.29,2.85-18.74,1.22s9.37-12.22,15.07-15.07c5.7-2.85,32.18-10.59,32.18-10.59,0,0-17.92.41-19.15-1.22s8.96-11,17.11-12.63c8.15-1.63,22-3.26,27.29-1.63,5.3,1.63,13.44,4.07,13.44,4.07,0,0,11.81-5.7,21.18-1.63,9.37,4.07,14.26,10.18,14.26,10.18,0,0,12.22-3.26,19.96,7.74,7.74,11,6.11,21.18,6.11,21.18,0,0,11,6.52,8.55,21.18s-13.04,27.7-13.04,27.7l-1.68-6.45-2.4-2.92s1.63-9.37,1.63-16.29-2.04-17.11-2.04-17.11Z"/>
    <path class="cls-2" d="M286.45,254.74s-14.84,8.75-12.99,10.07,13.25.53,13.25.53c0,0-12.46,8.22-11.13,10.07s4.51,2.65,8.75,2.65,11.41-.28,11.41-.28c0,0-1.6-7.93-1.34-11.11.27-3.18,1.34-11.29,1.34-11.29,0,0-2.4,1.22-9.29-.64Z"/>
    <path class="cls-11" d="M294.03,212.87s2.65-4.26,3.87-6.53c1.69-3.14,3.63-7.49,3.63-7.49,0,0,33.35,3.04,51.63,9.75,37.74,13.86,68.37,33.4,62.3,31.35,0,0-.44,15.18-5.62,21.69-8.5,10.68-9.27,13.72-22.28,9.67-17.74-5.52-17.5-22.53-21.92-22.93-4.42-.4-22.9,6.03-35.35,2.01s-29.48-35.11-29.48-35.11l-6.77-2.42Z"/>
    <path class="cls-8" d="M342.46,245.89c12.71-.98,16.48-7.52,17.34-12.43.87-4.91-3.47-13.01-3.47-13.01l-26.3.58s-4.34,10.41-1.16,15.61c3.18,5.2,9.83,9.54,13.58,9.25Z"/>
    <path class="cls-8" d="M391.6,236.06c9.83,1.16,15.32,10.41,14.16,15.32-1.16,4.91-4.62,15.32-14.45,13.87-9.83-1.45-14.45-7.8-12.72-16.19,1.96-9.49,9.8-13.38,13.01-13.01Z"/>
    <path class="cls-2" d="M365.7,201.46s-49.03,13.25-46.65,15.64,29.25,5.12,37.28,3.36c8.04-1.77,22.48-5.68,22.48-5.68l-13.12-13.32Z"/>
    <path class="cls-2" d="M328.06,195.1s-21.57,6.53-17.68,9.5,37.03.31,37.03.31l-19.35-9.81Z"/>
    <path class="cls-1" d="M240.86,296.35s14.58-8.22,24.65-8.22,21.73,1.59,26.51,3.18c4.77,1.59,9.83,5.61,9.83,5.61l-6.12,10.29s4.24,3.98,4.51,5.04,2.02,4.22,2.02,4.22c0,0,4.87.55,6.72,2.67s3.71,3.18,3.71,3.18l4.23.26,6.37-6.09,10.34,3.45s2.92,2.92.27,6.36-3.18,4.51-7.42,4.24-14.84-1.59-14.84-1.59c0,0,.53.53.53,8.48s.27,13.52.27,13.52c-.53,5.04-.52,9.85-.52,9.85,0,0-11.26-8.97-12.85-15.86s-1.21-13.08-1.21-13.08c0,0-4.24,5.83-12.99,7.95s-20.67-.27-20.67-.27c0,0,7.16-2.65,9.54-5.04s8.48-8.22,10.07-9.01,4.51-3.45,4.51-3.45c0,0-.27-3.45-.27-5.04s.06-3.95.06-3.95c0,0-10.66-10.63-14.64-11.69s-12.72-.27-12.72-.27l-19.88-4.77Z"/>
    <path class="cls-1" d="M76.4,348.64l33.79-3.86s13.03,9.65,14.97,17.86c1.93,8.21,1.45,19.79,6.76,25.1s22.69-1.45,29.93,0c7.24,1.45,11.1,4.83,11.59,7.72s2.9,8.21,2.9,8.21c0,0,10.62-6.76,15.93-12.55,5.31-5.79,19.53-16.73,25.94-26.22,6.41-9.5,21.29-40.17,21.29-40.17,0,0-9.57-2.63-15.85-3.12s-11.59-5.79-11.59-5.79c0,0-4.34,6.76-27.03,7.24s-26.47,1.65-49.15-1.77c-16.82-2.54-24.71-5.95-34.37-3.05s-14,13.03-17.38,16.41c-3.38,3.38-7.72,14-7.72,14Z"/>
    <path class="cls-6" d="M316.64,278.68s10.05,15.73,17.79,19.59c7.73,3.87,20.88,7.73,20.88,7.73,0,0-15.47,5.16-28.62-5.16-13.15-10.31-10.05-22.17-10.05-22.17Z"/>
    <path class="cls-7" d="M319.22,291.05s7.99,1.55,11.86,5.93,4.12,9.02,4.12,9.02c0,0-6.45-2.06-10.83-5.93s-5.16-9.02-5.16-9.02Z"/>
    <path class="cls-8" d="M315.35,274.55s10.05,19.59,19.08,23.72c9.02,4.12,22.69,7.48,22.69,7.48,0,0,6.96-3.35,9.02-4.9s6.19-6.96,6.19-6.96c0,0-23.72-1.55-33.77-7.99-10.05-6.45-22.69-25.01-22.69-25.01l-.52,13.66Z"/>
    <path class="cls-1" d="M198.51,437.21s10.03,7.93,11.16,7.93,8.13,2.52,8.13,2.52c0,0,16.24-4.02,22.24-2.14s15.74,6,15.74,6l12.24-19.12s-14.45-5.85-34.15-18.48c-19.7-12.63-33.19-31.37-33.19-31.37l-16.12,14.24s10.12,13.49,11.99,19.87,1.96,20.56,1.96,20.56Z"/>
    <path class="cls-1" d="M91.22,448.51s-29.99,7.5-34.11,8.25-9-1.12-11.62,0-5.62,13.12-7.12,23.61-.75,37.11,1.87,37.11,8.25-2.62,12.37-11.99c4.12-9.37,6.37-25.11,6.37-25.11,0,0,26.24-.75,25.11-1.5s13.12-1.12,13.12-1.12c0,0-4.39-5.82-5.57-13.22-1.18-7.4-.43-16.02-.43-16.02Z"/>
    <path class="cls-3" d="M160.35,478.59l-24.52-12.46-21.37,5.62s-4.5,7.5-9,16.49c-4.5,9-6,20.99-3.37,21.74s9.75-3,13.49-5.62c3.75-2.62,11.99-14.24,11.99-14.24l25.11,14.24s.25-10.89,1.63-16.13c1.37-5.24,6.03-9.64,6.03-9.64Z"/>
    <path class="cls-5" d="M196.1,247.59l-.12-4.34s-6.59-12.65-5.27-23.99c.87-7.44,11.83-34.45,15.82-32.63s2.54,6.18,2.54,6.18c0,0,6.54-14.9,9.81-13.44s2.18,12.72,1.45,15.26-2.18,15.99-2.18,15.99c0,0,3.63-13.81,5.09-17.08s6.54-11.26,9.45-10.9,2.91,12.72.73,16.35-7.63,22.16-7.63,22.16c0,0,10.54-6.9,15.62-6.9s7.63,2.54,7.99,4.36-8.36,4.36-11.26,7.63c-2.91,3.27-3.27,7.27-5.45,8.72s-10.44,5.45-12.98,9.09-1.91,4.36-1.91,4.36c0,0-8.12.08-12.05.4s-9.64-1.21-9.64-1.21Z"/>
    <path class="cls-5" d="M438.23,304.69l4.11-3.98s-3.63-8.36-4-14.17c-.36-5.81,5.09-15.99,7.63-17.44s4.72-3.63,6.9-2.54,6.18,3.63,6.18,3.63c0,0,6.9-5.09,10.17-2.54,3.27,2.54,4.72,8.72,4.72,8.72,0,0,6.54.36,7.27,2.91s1.09,8.36,1.09,8.36c0,0,4.36,6.18,2.91,9.81-1.45,3.63-8.36,9.45-10.54,9.45h-5.09s-4.5,4.85-6.32,4.85-7.04.12-7.04.12l-4.21,6.43s-2.61-2.83-7.23-6.03c-4.62-3.2-6.55-7.58-6.55-7.58Z"/>
    <path class="cls-9" d="M180.61,400.3s-6.24-11.17-13.47-12.49-23,5.26-28.26,2.63-6.41-13.07-8.87-18.73c-3.29-7.56-4.74-11.38-7.23-14.46-5.59-6.9-11.17-13.14-11.17-13.14,0,0,35.49,1.97,59.15-1.64,23.66-3.61,41.4-10.84,45.67-13.14s14.46-5.59,14.46-5.59l8.61.98s-12.61,30.07-21.29,40.17c-8.68,10.1-16.07,18.48-16.07,18.48l-9.69,5.42-11.83,11.5Z"/>
  </g>
  <g id="Layer_2">
    <path class="cls-8" d="M300.68,364.41c-7.95-3.84-16.08-8.66-24.31-14.49-.98-.69-2.31-.6-2.97.24-5.35,6.74-10.59,13.66-15.69,20.76-.65.91-.38,2.31.63,3.09h0c1,.77,2.35.65,3.01-.28,4.33-6.05,8.75-11.96,13.26-17.75.66-.85,1.98-.98,2.96-.31,5.71,3.9,11.35,7.3,16.93,10.23.94.49,1.16,1.59.52,2.48-3.68,4.99-7.31,10.07-10.89,15.23-.65.92-1.94,1.26-2.89.72-1.71-.97-3.42-1.99-5.14-3.05-.95-.59-1.2-1.81-.55-2.71,2.58-3.61,5.18-7.18,7.81-10.71.68-.91.43-2.13-.58-2.75h0c-1-.61-2.38-.41-3.07.51-3.46,4.6-6.87,9.28-10.22,14.04-.64.9-.39,2.16.57,2.79,4.1,2.72,8.18,5.17,12.22,7.37.94.51,2.22.15,2.86-.78,5.25-7.56,10.61-14.95,16.06-22.17.67-.89.46-1.96-.49-2.42,0,0-.01,0-.02,0Z"/>
  </g>
  <g id="Ebene_2">
    <path class="cls-4" d="M303.27,228.01c-.93-3-2.48-5.72-4.62-7.3-4.37-3.1-10.59-1.66-13.58,2.76-3.23,4.43-4.47,10.4-4.43,15.87.08,4.1.89,8.26,3.42,11.42,2.86,3.19,6.46,5.1,11.08,5.49-2.8,1.79-6.64,1.72-9.87.48-10.38-4.04-11.43-17.94-8.73-27.23,1.46-4.87,4.31-9.84,8.91-12.54,8.64-5.05,19.17.72,17.81,11.06h0Z"/>
    <path class="cls-4" d="M295.61,254.63c-.38,32.46,10.3,56.21,44.38,62.65,17.56,3.04,35.78-4.71,47.14-18.17,4.72-5.41,7.62-12.07,10.27-18.74,1.32-3.39,2.57-6.87,3.65-10.33l2.94.79c-1.84,7.29-4.1,14.39-7.27,21.32-6.56,14.01-19.67,24.62-34.45,29.04-11.21,3.37-23.44,2.59-34.35-1.47-10.97-3.87-21.11-10.87-27.3-20.89-8.26-13.06-9.95-29.72-5-44.21h0Z"/>
    <path class="cls-4" d="M356.75,211.05c8.27,1.38,16.19,4.17,23.86,7.5,7.7,3.24,15.2,6.94,22.43,11.16,5.12,3.04,10.06,6.2,14.63,10.1-.9,7.34-2.53,14.45-5.85,21.11-5.58,11.5-15.62,16.58-27.83,11.34-6.88-2.8-11.73-9.16-14.86-15.55-1.26-2.19-2.09-4.88-3.87-6.47-3.07-1.21-6.61.3-9.83,1.11-13.98,4.48-30.05,2.28-39.95-9.29-7.06-7.79-11.99-17.36-14.71-27.46,3.55,5.92,7.21,11.65,11.27,16.98,4.05,5.29,8.6,10.3,14.07,13.48,8.66,4.61,18.84,4.99,28.17,2.15,3.99-1.07,8.61-2.65,12.71-.79,3.23,1.76,4.23,5.49,5.9,8.33,1.55,2.97,3.21,5.76,5.32,8.13,5.87,6.74,17.27,10.51,24.59,3.92,7.18-6.62,9.98-17.13,11.54-26.52,0,0,.6,1.43.6,1.43-9.02-5.96-18.81-11.16-28.53-16.02-9.85-4.98-20.15-8.98-29.67-14.66h0Z"/>
    <path class="cls-4" d="M359.59,237.22c-7.17,13.03-26.13,13.25-32.39-.73-3.92-8.44.72-19.61,9.71-22.39,14.16-4.23,30.02,8.36,22.68,23.13h0ZM356.9,235.87c2.62-5.08,1.35-11.46-3.03-15.05-4.26-3.4-10.78-4.95-15.96-3.53-7.35,2.03-11.34,11.21-8.28,18.16,5.25,12.27,21.38,11.95,27.27.42h0Z"/>
    <path class="cls-4" d="M405.46,257.8c-2.71,5.42-8.53,9.81-14.84,8.82-4.02-.59-7.88-2.22-10.52-5.36-6.39-7.87-2.78-21.79,6.56-25.78,13.1-5.19,25.22,10.34,18.8,22.32h0ZM402.55,256.28c3.07-5.88.28-13.85-5.43-17.04-12.43-7.25-22.74,10.77-15.2,20.49,3.19,3.76,9.37,5.44,13.79,3.6,3.02-1.26,5.3-3.97,6.84-7.06h0Z"/>
    <path class="cls-4" d="M343.51,267.19c3.27,3.78,5.64,7.6,9.28,10.58,4.54,3.56,13.55,3.42,16.81-1.76,3.33-6.05-.03-14.59-5.79-18.19,2.46.69,4.67,2.31,6.38,4.32,3.49,4.23,5.26,10.29,2.82,15.65-2.63,5.63-9.3,7.55-15.04,7.14-8.58-.58-16.12-9.07-14.46-17.74h0Z"/>
    <path class="cls-4" d="M300.05,235.36c-2.39-2.58-4.32-5.86-6.77-8.04-1.08-.93-2.26-.94-3.69-.85-1.58.15-3.31.62-5.23,1.15,1.47-2.7,4.54-4.72,7.8-4.51,5.35.6,7.82,7.67,7.88,12.25h0Z"/>
    <path class="cls-4" d="M407.63,265.19c7.13.9,10.14,8.12,8.38,14.55-1.36,5.94-5.02,11.31-10.18,14.61-3.4,2.18-8.21,3.99-11.86,1.29,0,0,.32-1.16.32-1.16,6.62-1.44,12.18-5.4,15.48-11.31,3.55-6.07,4.11-12.85-2.46-16.83,0,0,.33-1.15.33-1.15h0Z"/>
    <path class="cls-4" d="M413.01,201.7c4.03,11.9,4.07,24.79,1.39,36.97,0,0-4.61-1.21-4.61-1.21,1.65-5.65,2.65-11.5,2.85-17.4.19-5.84-.31-11.95-1.86-17.56,0,0,2.23-.8,2.23-.8h0Z"/>
    <path class="cls-4" d="M316.28,259.97c10.35,15.24,24.16,30.34,43.46,32.36,6.18.78,12.53.74,18.89.04-6.07,2.14-12.6,3-19.14,2.72-20.22-.46-36.35-17.19-43.22-35.12h0Z"/>
    <ellipse class="cls-4" cx="342.82" cy="234.29" rx="8.98" ry="6.33" transform="translate(54.14 532.76) rotate(-80.3)"/>
    <ellipse class="cls-4" cx="388.84" cy="253.5" rx="8.73" ry="5.82" transform="translate(54.06 575.02) rotate(-76.94)"/>
    <path class="cls-10" d="M302.83,293.92c-4.14,9.04-8.5,14.14-8.5,14.14"/>
    <path class="cls-10" d="M325.61,314.08c-7.16,6.41-8.36,8.39-8.36,8.39"/>
    <path class="cls-4" d="M316.77,261.19c-1.62,14.59.12,32.54,13.87,40.67,6.38,3.84,14.08,5.31,21.4,3.61,7.34-1.69,14.17-5.96,20.03-11.36-4.4,6.84-11.26,12.37-19.09,14.85-8.17,2.64-17.32,1.06-24.57-3.33-9.44-5.31-14.34-16.16-14.99-26.6-.47-6.13.07-12.28,1.66-18.22,0,0,1.69.38,1.69.38h0Z"/>
    <path class="cls-4" d="M315.98,274.18c5.16,8.49,11.74,16.67,20.22,22.01,5.82,3.29,12.03,6.14,18.56,7.63,1.06.22,2.23.38,3.16.4l.23,1.66c-7.2.49-13.99-2.49-20.4-5.36-10.68-5.23-18.56-14.81-24.07-25.14,0,0,2.3-1.2,2.3-1.2h0Z"/>
    <path class="cls-4" d="M304.92,222.7c-.32,3.76-.72,7.5-2.32,11-1.54,3.37-3.32,6.54-5.25,9.68l-.94-1.84c2.6-.11,5.54-.88,7.6-2.45,1.78-1.57,3.4-3.62,4.29-5.8.02-.06.04-.19.02-.13,0,.04,0-.01-.03.14l4.62.65c-.21,1.09-.86,2.03-1.48,2.9-2.53,3.35-6.04,6.28-10.26,6.86-2.21.43-4.62.29-6.88.04,2.25-3.54,4.4-7.26,6.14-11.06,1.43-3.11,1.82-6.74,2.11-10.14,0,0,2.4.14,2.4.14h0Z"/>
    <path class="cls-4" d="M416.94,198.52c-4.77,5.46-11.24,9.16-17.72,12.26-6.58,3.02-13.54,5.16-20.6,6.63-17.66,3.46-35.66,5.38-53.62,3.84-2.2-.32-4.41-.56-6.45-1.7-.22-.14-.45-.3-.72-.65-1.55-2.61,1.94-4.15,3.67-4.99,19.94-7.95,41-12.41,61.81-17.34-12.79,5.02-26.33,8.4-40,9.97-9.67.75-19.24,1.67-28.98,1.51-2.04-.07-4.5-.52-6.35-1.72-1.35-.65-1.59-2.32-.68-3.33,1.43-1.56,3.33-2.21,5.03-3.03,5.17-2.2,10.4-3.9,15.65-5.6,5.24-1.71,10.53-3.23,15.87-4.54,5.36-1.26,10.74-2.42,16.25-3.06-15.15,6.6-31.29,10.05-46.5,16.15-1.37.62-2.84,1.21-3.85,2.05-.03,0,.11-.05.14-.51.01-.32-.2-.75-.41-.87,2.59,1.74,5.98,1.5,9.06,1.57,5.42-.05,10.92-.29,16.4-.48,16.44-.39,32.62-3.32,48.38-8.1-16.99,5.23-34.04,10.21-50.75,16.19-4.09,1.62-8.55,2.86-12.04,5.4-.06.03.02.12.12-.4.05-.34-.2-.86-.43-.98,4.76,1.72,10.47,1.31,15.6,1.4,27.88-.89,56.79-5.24,81.11-19.66h0Z"/>
    <path class="cls-4" d="M318.19,290.18c4.19.14,8.32,1.19,11.81,3.66,3.41,2.65,6.1,6.68,5.49,11.17,0,0-1.2-.06-1.2-.06-2.24-8.16-8.44-11.75-16.23-13.57,0,0,.12-1.19.12-1.19h0Z"/>
    <path class="cls-4" d="M300.88,317.32c-1.68-1.67-2.29-3.85-3.62-5.33-.74-.61-1.7-.29-2.69-.02-2.91.83-5.37,3.31-5.46,6.41-.03.57.04,1.16.18,1.56.05.18.2.37.08.21-.25-.16,0-.01.24,0,1.1.18,2.58.13,3.95.03,1.39-.1,2.83-.26,4.2-.45l.44,3.57c-1.51.14-2.97.24-4.48.29-1.62.02-3.06.08-4.74-.22-.46-.13-.96-.14-1.76-.78-2.29-2.51-1.26-6.74.37-9.25,2-2.89,5.17-4.5,8.65-4.79,1.99-.2,3.9,1.56,4.74,3.1.81,1.3,1.49,2.33,2.4,3.07l-2.49,2.6h0Z"/>
    <path class="cls-4" d="M297.41,319.14c.07-.07.11-.19.11-.29,0-.03.01.04.02.06l.04.17c.8,3.07,1.76,7.41,4.05,9.46,2.72,1.89,8.46.55,8.57-3.17,0-3.16-2.61-6.13-5.45-7.39-1.93-.68-4.33.48-6.26.98-.35.12-.94.3-1.28.43-.03,0-.06.03.02-.02.08-.06.16-.15.19-.24h0ZM296.18,318.46c.13-.23.41-.35.62-.49.73-.46,1.53-.92,2.31-1.31,1.41-.69,2.88-1.35,4.51-1.58,3.04-.13,5.62,1.75,7.55,3.88,3.49,3.74,3.71,10.23-1.38,12.68-3.2,1.63-7.38,1.73-10.21-.76-1.87-1.86-2.38-3.97-2.89-5.97-.39-1.88-.6-3.77-.6-5.68,0-.25-.03-.56.09-.79h0Z"/>
    <path class="cls-4" d="M291.21,323.7c-5.05,1.89-10.42,4.48-14.15,8.45-3.55,5-9.69,7.27-15.59,7.72,0,0,.07-.94.07-.94,6.44.26,13.09.96,19.41.33,1.51-.18,2.98-.52,4.1-1.05.9-.47,2.9-1.86,3.88-2.51,4.11-2.76,8.47-6.16,12.17-9.36,0,0-1.42,5.41-1.42,5.41-1.21,5.25-.89,11.3,1.8,16.1,2.87,4.95,7.01,9.3,11.21,13.21,0,0-.94.58-.94.58-1.32-5.39-1.44-11.02-.5-16.48.73-4.93-.18-10.24-3.06-14.32,0,0,2.89-2.14,2.89-2.14,1.63,2.58,2.49,5.38,2.91,8.35.55,3.54.03,7.11-.82,10.52-.94,4.51-1.03,9.26-.3,13.81,0,0,.27,1.6.27,1.6l-1.2-1.02c-10.3-8.46-18-16.73-15.77-31.05,0,0,3.02,1.7,3.02,1.7-3.7,3.98-7.64,6.87-12.34,9.48-7.79,2.95-18.06.56-25.54-2.22,0,0-2.9-1.17-2.9-1.17l2.97.23c4.09-.66,8.26-2.15,11.33-4.96,1.07-.93,1.77-2.12,2.6-3.24,3.89-4.78,9.1-7.79,14.59-10.37,0,0,1.29,3.36,1.29,3.36h0Z"/>
    <path class="cls-4" d="M305.94,330.04c-1.11,3.65-1.43,7.73-1.5,11.6-1.14-3.97-2.03-7.9-2.06-12.12,0,0,3.56.52,3.56.52h0Z"/>
    <path class="cls-4" d="M276.31,294.07c8.18,3.23,15.2,8.8,20.99,15.4,0,0-2.93,2.09-2.93,2.09-4.59-7-10.69-13.34-18.06-17.49h0Z"/>
    <path class="cls-4" d="M312.52,319.55c3.5,1.54,7.46,1.59,11.16.56,1.1-.35,2.34-.64,3.22-1.42.11-.11.22-.26.12-.43.38.25.09.82-.08,1.12-3.45,4.78-10.89,6.23-16.04,3.39,0,0,1.63-3.21,1.63-3.21h0Z"/>
    <path class="cls-4" d="M288.66,315.68c-10.23-9.12-17.02-18.68-32.25-13.77,0,0-.67-1.76-.67-1.76,10.85-4.13,19.61-.91,27.87,6.54,2.48,2.12,4.87,4.25,7.35,6.21l-2.3,2.77h0Z"/>
    <path class="cls-4" d="M300.59,297.81c-4.63-4.48-11.4-5.95-17.58-7.13-9.27-1.62-18.85-1.29-27.87,1.47-5.05,1.52-10.18,3.69-14.49,6.66,0,0-1.93-3.04-1.93-3.04,2.61-1.38,5.12-2.46,7.74-3.51,13.34-5.42,27.04-6.72,41.14-3.73,5.6,1.27,11.7,2.84,15.87,7.11,0,0-2.88,2.17-2.88,2.17h0Z"/>
    <path class="cls-4" d="M268.6,301.48c-12.34,2.21-32.06.32-42.27-7.45-5.79-4.9-7.1-17.08-8.12-24.25-.87-7.49-1.24-14.95-1.18-22.47l3.6-.06c.44,7.33,1.05,14.71,2,21.97,1.11,6.82,1.83,14.34,5.45,20.26,8.19,8.53,28.84,9.16,40.51,11.99h0Z"/>
    <path class="cls-4" d="M198.04,245.28c-1.82,18.04-2.79,45.42,8.5,60.4,6.35,7.96,16.36,12.32,26.03,15.22,10.25,2.98,20.65,3.99,31.1,6.52-8.07,1.63-16.3.98-24.3-.55-13.44-2.67-27.51-7.19-36.59-18.22-10.03-13.32-10.66-31.82-10.07-47.77.3-5.42.84-10.77,1.76-16.17l3.56.56h0Z"/>
    <path class="cls-4" d="M312.46,326.12c4.59,1.64,14.37,4.49,18.46,1.24,2.13-2.94.29-7.68-.74-10.92,0,0,1.05-.6,1.05-.6,2.52,3.63,5.29,9.28,2.4,13.62-4.94,5.81-16.8,2.86-22.67-.08,0,0,1.51-3.27,1.51-3.27h0Z"/>
    <path class="cls-10" d="M331.33,328.83c5.62.8,10.26,7.24,25.68,7.62,16.05.4,22.64-.82,41.61-7.89,16.11-6.01,39.39-26.42,39.39-26.42"/>
    <path class="cls-4" d="M334.19,347c-5.36,17.7-14.88,33.71-25.56,48.73-5.49,7.42-11.65,14.31-17.96,21.04-3.24,3.29-6.49,6.57-10.03,9.6-3.44,2.86-6.98,5.87-11.24,7.51-.41.11-.95.3-1.41.3,0,0-.11-3.6-.11-3.6-.04,0-.15.01-.13,0,.01-.01.09-.04.11-.04.16-.05.72-.33.88-.42,3.27-1.91,6.07-4.54,8.89-7.12,6.5-6.23,12.56-12.99,18.47-19.8,15.38-16.9,25.37-37.32,38.11-56.21h0Z"/>
    <path class="cls-4" d="M338.59,351.74c-2.57,6.39-6.32,12.87-12.54,16.33-.55.27-.9.47-1.55.67,0,0-.78-3.51-.78-3.51,1.52-.27,2.96-1.05,4.3-1.85,4.44-2.8,7.85-7.17,10.57-11.64h0Z"/>
    <path class="cls-4" d="M240.04,325.01c3.55,3.57,7.94,6.46,12.76,8.18-2.6-.27-5.19-.93-7.7-1.82-2.52-.89-4.97-2.08-7.3-3.54l2.25-2.81h0Z"/>
    <path class="cls-4" d="M331.98,360.39c16.55,2.37,33.58.77,49.96-2.27,5.38-1.14,11.1-2.33,16.3-4.01,10.63-3.22,20.47-8.75,29.45-15.27,8.87-6.66,17.27-14.4,24.19-23.04,0,0,2.89,2.15,2.89,2.15-1.8,2.36-3.62,4.54-5.56,6.69-9.64,10.73-20.92,20-33.61,26.93-5.15,2.66-10.44,5.12-16.04,6.76-16.58,4.96-33.74,7.72-51.04,7.41-5.85-.17-11.52-.56-17.32-1.83,0,0,.79-3.51.79-3.51h0Z"/>
    <path class="cls-4" d="M453.51,304.2c1.44-3.77,3.5-8.14,2.82-12.04-1.37-4.23-5.68-7.02-9.32-9.2,0,0,.56-1.31.56-1.31.69-1.62,2.52-5.92,3.2-7.49,0,0,1.32,2,1.32,2,2.75,3.03,7,6.67,11.17,4.88,0,0,.22-.11.22-.11.14-.08.14-.05.21-.14.28-.69-.02-1.63-.31-2.46-1.64-4.03-5.05-7.85-9.08-9.68-7.89-3.62-12.25,6.69-13.89,12.93-2.14,5.91.75,11.92,3.81,17,0,0,.74,1.14.74,1.14l-.87,1.02-5.13,6.02-2.74-2.34,5.13-6.02s-.13,2.16-.13,2.16c-2.95-4.83-5.79-10.26-5-16.14,1.58-8.85,7.91-23.62,19.25-18.4,4.78,2.32,8.43,6.5,10.35,11.43.72,1.91,1.01,4.94-1.47,5.86-5.4,2.39-10.75-1.65-14.35-5.36,0,0,2.36-.45,2.36-.45l-1.36,5.3-.85-2.16c10.57,6.15,12.05,14.77,3.38,23.56h0Z"/>
    <path class="cls-4" d="M458.04,268.15c7.46-5.42,16.21-1.2,16.57,8.02,0,0-2.03-1.88-2.03-1.88,3.32.15,7.24.58,9.17,3.66,1.7,3.06,1.58,6.15,1.51,9.5,0,0-1.06-2.01-1.06-2.01,2.66,1.57,3.6,4.93,3.97,7.74.71,5.5-2.81,10.77-7.37,13.65-2.56,1.53-5.59,1.76-8.45.96,0,0,1.97-.52,1.97-.52-4.46,4.87-9.62,6.68-16.13,5.48,0,0,1.47-.57,1.47-.57l-4.47,5.88-2.8-2.26,4.8-5.62.6-.71c5.76,1.02,9.88-.11,13.8-4.56,0,0,1.97-.52,1.97-.52,4.2,1.69,8.21-1.22,10.36-4.79,1.81-2.71,2.06-6.27.53-9.13-.42-.73-.91-1.43-1.67-1.75-.01,0-.09-.03.02.03l-1.06-2.01c1.02-3.14,1.43-8.54-2.92-9.1-1.19-.21-2.63-.13-3.76.21l-2.03-1.88c.04-.21.05-.62.04-.94-.16-6.03-6.43-8.3-10.67-4.16,0,0-2.35-2.73-2.35-2.73h0Z"/>
    <path class="cls-4" d="M474.61,276.08c.33,6.48-2.63,13.58-8.68,16.58-2.02.94-4.62,1.07-6.43-.18,5.72-1.14,9.34-5.61,10.7-10.99.44-1.75.68-3.55.81-5.4h3.6Z"/>
    <path class="cls-4" d="M483.06,288.17c-1.82,6.03-8.58,13.76-15.44,12.88-3.26-.74-5.49-4.15-5.13-7.37.57,2.32,2.11,4.22,4.02,4.91,5.2,1.75,11.57-7.35,13.14-11.58,0,0,3.41,1.16,3.41,1.16h0Z"/>
    <path class="cls-4" d="M470.86,308.01c-2.89-1.42-4.3-4.65-4.16-7.75,0,0,1.91-.05,1.91-.05.1.48.28,1.08.49,1.57.58,1.38,1.64,2.55,3.1,2.88,0,0-1.34,3.34-1.34,3.34h0Z"/>
    <path class="cls-4" d="M435.82,301.05c3.51,3.07,6.39,6.65,9.73,9.79,2.54,2.28,5.43,4.35,8.13,6.42,0,0-1.85,3.09-1.85,3.09-7.73-3.93-13.41-11.09-16.01-19.3h0Z"/>
    <path class="cls-4" d="M242.91,326.05c-11.13,20.85-23.55,41.2-39.76,58.52,0,0-2.61-2.48-2.61-2.48,11.72-12.89,21.12-27.75,29.7-42.87,2.84-5.07,5.61-10.23,8.16-15.4l4.51,2.23h0Z"/>
    <path class="cls-4" d="M414.97,245.11c3.46-2.35,6.05-6.29,7.94-10.09,4.01-8,5.52-17.31,4.09-26.16-.72-3.96-2.19-8.48-6.07-10.19,0,0-1.2-.69-1.2-.69,0,0,.11-.7.11-.7.04-6.18-.32-12.97-3.92-18.18-4.92-5.51-12.1-9.91-19.65-9.5-.75.05-1.63.26-2.32.4-1.61-2.29-3.88-4.19-6.26-5.68-7.72-4.65-17.64-6.73-26.23-3.46-.52.15-.86.32-1.45.35-.35.03-.71-.11-1.03-.21-7.96-2.76-16.27-3.48-24.69-3.14-10.96.36-24.39,1.93-31.13,11.38-.17.34-.33.64-.43.98.13-.36-.15-1.03-.39-1.13,2.67.79,5.77.53,8.6.54,5.28-.11,10.62-.36,15.99-.21l.21,1.39c-3.86.97-7.72,1.95-11.56,2.99-5.72,1.59-11.45,3.16-16.97,5.26-5.38,2.15-10.49,5.17-15.14,8.62-3.25,2.54-6.77,5.32-8.89,8.82-.07.14-.14.31-.15.37-.05.11.03.05-.04-.19-.06-.2-.05-.3-.46-.67-.08-.07-.22-.14-.24-.15-.02-.01-.08-.03-.06-.02,0,0,.19.03.35.03,2.3,0,4.63-.49,6.99-.91,8.46-1.66,17.08-3.53,25.81-4.38,0,0-2.06,1.02-2.06,1.02-7.57,3.83-18.72,9.13-26,13.24-1.91,1.09-4.52,2.6-5.77,3.95.14-.29.01-.75-.14-1,3.1,1,7.54.13,11.12,0,2.72-.13,5.61-.18,8.42.29-2.72,1.33-5.44,2.7-8.08,4.2-3.12,1.85-6.47,3.53-8.97,6.13-.08.1-.13.2-.15.25-.03.06.03.04,0-.18,0-.1-.09-.21-.1-.23.07.02.13.05.18.1,3.4.87,7.13-.16,10.53-.92,0,0,.62,3.55.62,3.55-3.94.12-8.09.79-11.88-.69-3.19-1.72.21-4.05,2-5.1,4.77-2.8,9.74-4.98,14.76-7.24,0,0,.19.57.18.57-4.54,2.41-9.46,3.19-14.56,3.25-2.47-.03-7.31-.06-7.33-3.54.27-5.28,29.21-15.51,34.87-17.38,0,0,.26.76.26.76-7.42,3.19-15.12,5.35-23.03,6.93-2.9.44-5.9,1.3-8.95.81-6.7-2.68,6.01-12.61,8.7-14.49,4.98-3.62,10.37-6.56,16.15-8.69,5.74-1.95,11.62-3.31,17.52-4.53,3.92-.81,7.84-1.57,11.8-2.2l.21,1.39c-2.64.64-5.29,1.07-7.97,1.41-4.03.52-8.09.78-12.17.73-2.37-.16-8.01.25-7.52-3.5,1.6-4.9,6.31-8.03,10.62-10.23,7.47-3.69,16.08-4.5,24.17-4.64,8.61-.25,17.55.46,25.78,3.35,0,0,.24.08.24.08l.12.04c-.09-.04-.33-.08-.43-.07-.06,0-.13.01-.07,0l.14-.04.41-.15.94-.35c6.63-2.64,14.2-2.62,20.87-.15,5.39,1.87,10.62,4.96,14.01,9.71,0,0-1.95-.74-1.95-.74,8.27-1.53,16.49,2.96,22.23,8.51,3.08,2.7,4.85,6.95,5.58,10.9.71,3.97.81,7.89.3,11.87l-1.09-1.39c5.48,1.11,8.26,7.05,9.42,11.94,2.79,12.12,0,25.61-7.97,35.26-1.7,1.97-3.71,3.77-6.07,4.94,0,0-1.7-3.17-1.7-3.17h0Z"/>
    <path class="cls-4" d="M285.93,256.92c-4.02,2.26-8.28,4.64-11.37,8.09.1-.26-.15-.81-.47-.89,7.48,2.41,16.56-2.47,23.5-4.87,0,0-8.4,6.95-8.4,6.95-2.72,1.5-5.38,3.21-7.88,5.03-1.69,1.31-3.82,2.77-4.81,4.55.02-.05,0-.07-.01-.15,0-.1-.09-.18-.11-.24,3.39,1.83,9.36,2.05,13.62,1,1.44-.37,2.83-.85,4.13-1.5l1.42,3.31c-6.47,2.14-13.51,2.49-19.83-.2-.63-.37-.77-.33-1.44-1.04-2.42-3.09,6.98-9.1,9.12-10.92,1.28-.98,2.56-1.91,3.87-2.88l1.41,3.26c-2.65.33-5.17.59-7.78.67-2.52.04-5.15,0-7.56-.92-1.26-.48-1.11-1.89-.35-2.75,3.27-3.6,7.31-6.24,10.93-9.49,0,0,2.01,2.99,2.01,2.99h0Z"/>
    <path class="cls-4" d="M91.42,448.91c20.5-7.86,40.38-17.39,59.08-28.89,11.14-6.96,21.86-14.69,32.28-22.68,0,0,2.33,2.74,2.33,2.74-19.93,17.89-43.2,31.7-67.62,42.51-8.13,3.62-16.44,6.83-24.85,9.71l-1.22-3.39h0Z"/>
    <path class="cls-4" d="M200.91,380.41c.96.2,1.48.99,2.04,1.72.48.62,1.99,2.46,2.52,3.11,7.97,9.54,16.78,18.49,26.82,25.84,10.19,7.09,20.94,13.63,32.44,18.36,2.42,1,4.93,1.78,7.39,2.41-1.79,2.42-15.16,20.76-17.01,23.28-10.51-10.24-25.16-9.91-38.49-6.49-7.55-1.16-14.94-5.11-19.09-11.68.43-7.15.09-14.82-2.99-21.39-3.25-7.02-8.15-13.42-13.45-19.02,6.44-5.55,13.23-10.99,19.84-16.14h0ZM200.54,384c-5.25,4.9-10.34,9.54-15.7,14.07l.17-2.58c5.96,7.3,11.62,15.06,14.32,24.22,1.43,5.55,1.82,11.17,1.83,16.89,0,0-.29-1.07-.28-1.06,4.08,4.85,10.15,7.56,16.06,9.52,0,0-.81,0-.81,0,3.42-.58,6.76-.98,10.16-1.25,6.8-.57,13.96-.16,20.36,2.44,3.34,1.26,6.34,2.75,9.34,4.81,0,0-2.61.33-2.6.32,0,0,14.28-19.53,14.28-19.53,0,0,.99,2.81.97,2.8-13.75-5-26.08-12.91-38.08-21.14-11.4-8.3-21.24-18.44-30.37-29.11,0,0-.44-.53-.44-.53l-.22-.27-.03-.03c.23.3.68.48,1.04.44h0Z"/>
    <path class="cls-4" d="M96.09,473.51c17.94-4.3,36.07-8.7,53.23-15.54,16.97-7.33,33.2-16.49,49.42-25.37,0,0,1.74,2.85,1.74,2.85-15.8,10.13-32.02,19.61-49.37,26.89-8.78,3.52-17.79,6.2-26.92,8.51-9.08,2.33-18.22,4.3-27.46,5.93l-.64-3.27h0Z"/>
    <path class="cls-4" d="M256.59,453.23c-8.48,18.24-24.12,46.06-43.21,54.25-9.25,3.36-19.46,3.39-29.09,2.41-10.99-1.16-21.64-3.69-32.11-7.26,0,0,1.3-3.62,1.3-3.62,10.07,3.32,20.66,5.7,31.22,6.78,9.1.87,18.45.88,27.11-2.23,17.77-7.86,32.7-34.91,41.28-51.92,0,0,3.5,1.58,3.5,1.58h0Z"/>
    <path class="cls-4" d="M221.06,446.85c-4.26,9.26-14.1,30.78-24.63,33-11.9,2.66-24.21,2.07-36.24.6,0,0,.52-3.56.52-3.56,6.15.78,12.47,1.13,18.7,1.04,5.75-.11,11.57-.6,17.11-2.08,2.8-1.11,5.01-3.59,7.12-6.2,5.64-7.36,9.87-15.92,13.59-24.4,0,0,3.83,1.61,3.83,1.61h0Z"/>
    <path class="cls-4" d="M304.68,198.77c10.52-.56,21.14.9,31.14,4.17-10.52,0-20.98-1.46-31.14-4.17h0Z"/>
    <path class="cls-4" d="M401.83,271.45c4.15-4.99,11.77,2.16,8.93,7.12-1.08-3.98-4.44-5.78-8.34-6.08,0,0-.6-1.04-.6-1.04h0Z"/>
    <path class="cls-4" d="M93.12,449.99c-10.97,2.92-21.73,6.25-32.91,8.4-4.58.7-8.81-1.44-13.27-1,0,0-1.05.09-1.05.09.11,0,.24-.05.31-.1-1.17,1.96-1.89,4.94-2.48,7.42-1.73,7.76-8.11,46.18-3.01,50.65.71-.14,1.87-.66,2.53-1.17,9.38-7.58,11.76-22.54,13.97-33.81,0,0,.3-1.62.3-1.62l1.67-.12c8.92-.66,18.79-1.49,27.74-2.34,3.06-.32,6.16-.63,9.11-1.09l.63,3.54c-5.37.97-13.11,1.74-18.58,2.39-6.17.67-12.34,1.3-18.53,1.9l1.98-1.74c-.84,3.15-1.66,6.27-2.57,9.39-2.63,9.03-6.52,20.82-14.68,26.26-.8.43-1.7.85-2.59,1.07-.5.16-1.43.21-2.01-.03-4.17-1.74-4.02-11.69-4.34-15.57-.46-13.06,1.86-25.89,4.79-38.59.87-2.81,2-9.84,5.63-10.01,3.17-.39,6.73.18,9.72.81,3.1.65,5.78-.09,8.82-.77,9.33-2.2,18.61-4.8,27.83-7.45,0,0,.99,3.46.99,3.46h0Z"/>
    <path class="cls-4" d="M159.87,478.58c-8.65-3.17-17.11-6.54-24.76-11.73,0,0,1.32-1.75,1.32-1.75,7.49,4.51,16.18,7.49,24.51,10.04,0,0-1.06,3.44-1.06,3.44h0Z"/>
    <path class="cls-4" d="M117.38,472.41c-6,7.15-10.43,15.79-13.36,24.69-1.08,3.61-2.37,7.42-1.79,11.07.06.27.16.52.29.68,3.76,1.35,8.74-3.24,11.62-5.66,5.19-4.58,9.26-10.32,12.62-16.34,0,0,1.61,1.12,1.61,1.12,7.96,5.37,16.28,10.76,25.37,13.96,0,0-1.09,3.43-1.09,3.43-4.86-1.62-9.3-3.95-13.71-6.45-4.35-2.49-8.52-5.14-12.64-8,0,0,2.57-.53,2.57-.53-1.85,2.76-3.76,5.38-5.88,7.92-3.79,4.42-16.56,17.67-22.53,12.09-3.16-4.79,1.75-18.46,3.96-23.44,2.65-5.99,5.93-11.76,10.21-16.87l2.75,2.33h0Z"/>
    <path class="cls-4" d="M93.74,447.31c-2.22,10.09-.75,21.08,5.09,29.72,0,0-2.45,1.89-2.45,1.89-5.2-6.84-7.58-15.59-6.61-24.08.34-2.8.9-5.51,1.93-8.2l2.04.67h0Z"/>
    <path class="cls-4" d="M162.77,477.33c-6.68,8.97-9.76,15.71-8.23,27.09,0,0-2.63.62-2.63.62-2.28-7.88-1.23-16.82,3.74-23.47,1.57-2.2,3.33-4.18,5.44-5.92l1.67,1.67h0Z"/>
    <path class="cls-4" d="M212.9,317.29c-11.64,6.05-25.14,7.21-38.01,8.08-12.87.67-25.92.21-38.5-2.83-9.69-2.09-19.21-5.02-29.13-4.52-1.01.14-2.37.17-3.35.43-11.09,3.25-21.99,20.95-27.69,30.69,0,0-1.05-1.51-1.05-1.51,8.51-1.78,17.09-3.15,25.72-4.23,0,0,4.33-.51,4.33-.51,1.67-.09,3.59-.68,5.2.06,2.91,1.48,4.99,3.75,7.15,6.06,5.29,6.18,10.54,13.46,10.91,21.9.59,6.29.79,14.62,7.22,17.63,4.65,1.08,9.48-.77,14.19-1.49,5.43-.9,11.96-2.45,16.99.85,5.59,3.74,8.79,9.87,10.51,16.19,0,0-3.52.75-3.52.75-.59-2.55-1.6-5.26-2.89-7.59-1.91-3.41-4.52-6.7-8.3-7.88-8.49-1.76-16.86,2.71-25.47,2.37-3.33-.16-6.33-2.55-8.1-5.28-3.19-5.24-3.23-11.57-3.93-17.38-1.27-6.76-5.72-12.63-10.22-17.7-1.85-1.88-3.83-4.13-6.17-5.24-3.98.3-11.69,1.37-16.05,1.86-6.42.84-12.91,1.18-19.33,1.97,3.4-6.28,7.14-12.35,11.42-18.07,3.96-5.18,8.16-10.25,13.78-13.81,2.11-1.33,4.69-2.3,7.25-2.45.62-.09,1.85-.17,2.47-.19,13-.4,25.33,4.32,38,6.03,9.38,1.31,18.93,1.21,28.38.68,7.9-.49,15.74-1.44,23.42-3.22,4.45-1.1,8.96-2.51,12.96-4.76,0,0,1.81,3.11,1.81,3.11h0Z"/>
    <path class="cls-4" d="M108.88,342.57c19.14-.33,39.07-.24,58.08-1.85,14.5-.85,28.64-4.23,42.11-9.63,4.54-1.71,9.01-3.6,13.45-5.58-12.78,7.01-26.34,13.23-40.73,16.17-19.21,3.71-38.83,4.23-58.32,4.54-4.87.02-9.73.03-14.6-.05v-3.6h0Z"/>
    <path class="cls-4" d="M155.53,385.51c13.89-1.03,27.73-4.19,41.17-7.97-6.58,2.52-13.26,4.76-20.04,6.76-6.78,1.98-13.67,3.7-20.75,4.79l-.38-3.58h0Z"/>
    <path class="cls-4" d="M196,243.22c-12.12-12.16-7.43-31.94-.38-45.47,1.95-3.47,7.48-15.29,12.51-12.75,5.77,3.31-.94,14.33-2.42,18.7-1.39,3.56-2.56,7.31-3.6,11.04l-1.33-.29c.71-3.89,1.59-7.71,2.86-11.51.91-3.39,5.54-12.46,3.43-15.16-.11-.08-.3-.21-.38-.21-.84.22-1.61,1.12-2.3,1.92-2.27,2.84-4.08,6.32-5.75,9.75-3.98,8.52-7.12,17.83-6.57,27.3.49,5.78,2.37,10.92,3.94,16.68h0Z"/>
    <path class="cls-4" d="M214.25,211.14c1.65-5.99,3.21-11.95,4.43-18.02.66-3.74,1.39-7.47,1.19-11.2-.05-.69-.24-1.44-.42-1.63-2.35-.61-3.97,1.9-5.21,3.79-5.51,9.24-7.38,20.04-9.21,30.54,0,0-3.53-.7-3.53-.7,2.28-9.14,4.1-18.43,8.35-26.93,1.77-3.4,3.55-7.67,7.55-9.04,4.63-1.06,5.08,2.63,4.96,6.22-.32,6.36-1.64,12.43-2.83,18.62-.59,3.06-1.23,6.11-1.77,9.14l-3.51-.79h0Z"/>
    <path class="cls-4" d="M218.74,244.77c2.51-4.11,6.17-7.02,10.27-9.37.93-.53,1.79-1.13,2.49-1.97,1.82-2.11,2.64-4.91,4.49-7.28,2.8-3.61,7.89-4.53,11.34-7.1,2.24-1.63-.66-3.31-2.47-3.68-4.01-.95-7.82,1.4-11.2,3.4-3.84,2.29-7.76,6.07-11.06,9.08,1.99-7.96,4.02-16.17,6.47-23.99.89-2.97,1.78-5.94,2.55-8.93.81-3.57,2.02-7.31,1.32-10.78-.08-.24-.19-.4-.22-.43-.05-.02.05-.02-.14-.02-3.99.83-7.12,10.55-8.5,14.31-1.13,2.97-3.88,10.18-5.09,13.24,0,0-3.32-1.4-3.32-1.4,1.95-4.25,3.86-8.56,5.59-12.89,2.15-5.19,3.82-11.04,8.32-14.92,1.23-.97,3.54-1.71,4.99-.36,2.8,2.89.88,10.49.38,14.01-1.96,9.25-5,18.15-7.42,27.29,0,0-2.92-1.82-2.92-1.82,2.44-1.87,4.89-3.48,7.51-4.97,4.03-2.18,8.62-4.56,13.34-3.34,3.82.72,7.5,5.03,3.47,8.19-3.38,2.73-7.78,3.58-10.43,7.01-1.43,2.01-2.19,5.05-4.42,7.64-1.05,1.26-2.46,2.22-3.93,2.93-3.79,2.13-7.16,4.58-11.41,6.16h0Z"/>
    <path class="cls-4" d="M195.42,217.07c8.88-5.9,20.21-8.14,30.59-5.5-4.43,1.35-10.67,2.24-15.22,3.07-5.07.95-10.11,2.14-15.37,2.43h0Z"/>
    <path class="cls-4" d="M224.39,225.28c-7.39-.6-13.27,1.14-16.13,8.61-.98,2.19-1.8,4.5-2.62,6.87-.54-10.37,3.89-18.96,15.28-19.27,1.35-.03,2.61-.01,4.05.23l-.57,3.55h0Z"/>
    <path class="cls-4" d="M195.9,244.39c7.36,3.3,15.93,3.61,23.79,2.22,0,0,.84,2.63.84,2.63-4.3,1.58-8.75,1.9-13.24,1.45-4.48-.53-8.85-1.94-12.41-4.83,0,0,1.03-1.46,1.03-1.46h0Z"/>
    <path class="cls-4" d="M299.14,191.19c17.64-5.25,36.44-9.62,54.29-14.15-13.15,4.95-26.59,9.16-40.22,12.58-4.55,1.11-9.15,2.04-13.8,2.74l-.26-1.17h0Z"/>
    <path class="cls-4" d="M281.44,209.08c6.85-1.25,13.71-2.27,20.68-2.53-3.21,1.49-6.65,2.31-10.11,2.9-3.46.58-6.96.93-10.47.82,0,0-.1-1.2-.1-1.2h0Z"/>
  </g>
</svg>